%TF.GenerationSoftware,KiCad,Pcbnew,9.0.7*%
%TF.CreationDate,2026-02-21T02:21:45-08:00*%
%TF.ProjectId,Contact Mic Board,436f6e74-6163-4742-904d-696320426f61,rev?*%
%TF.SameCoordinates,Original*%
%TF.FileFunction,Copper,L3,Inr*%
%TF.FilePolarity,Positive*%
%FSLAX46Y46*%
G04 Gerber Fmt 4.6, Leading zero omitted, Abs format (unit mm)*
G04 Created by KiCad (PCBNEW 9.0.7) date 2026-02-21 02:21:45*
%MOMM*%
%LPD*%
G01*
G04 APERTURE LIST*
%TA.AperFunction,ComponentPad*%
%ADD10C,1.700000*%
%TD*%
%TA.AperFunction,ComponentPad*%
%ADD11R,1.700000X1.700000*%
%TD*%
%TA.AperFunction,ComponentPad*%
%ADD12C,1.600000*%
%TD*%
%TA.AperFunction,ViaPad*%
%ADD13C,0.600000*%
%TD*%
G04 APERTURE END LIST*
D10*
%TO.N,GND*%
%TO.C,MIC2*%
X139466181Y-61501130D03*
D11*
%TO.N,Net-(MIC2-+)*%
X139466181Y-58961130D03*
%TD*%
D12*
%TO.N,Net-(U2A--)*%
%TO.C,R6*%
X122466181Y-58581130D03*
%TO.N,Net-(C10-Pad2)*%
X122466181Y-50961130D03*
%TD*%
D10*
%TO.N,GND*%
%TO.C,MIC1*%
X139466181Y-54501130D03*
D11*
%TO.N,Net-(MIC1-+)*%
X139466181Y-51961130D03*
%TD*%
D12*
%TO.N,Net-(C9-Pad2)*%
%TO.C,R5*%
X131466181Y-50870265D03*
%TO.N,Net-(U2B--)*%
X131466181Y-58490265D03*
%TD*%
D13*
%TO.N,+3.3VA*%
X120000000Y-62000000D03*
%TO.N,+3.3V*%
X114000841Y-61422570D03*
%TO.N,VMID*%
X133492747Y-55485620D03*
%TO.N,Net-(C9-Pad2)*%
X120000000Y-50289342D03*
%TO.N,GND*%
X122000000Y-59936455D03*
X115582450Y-51000000D03*
%TO.N,VMID*%
X119786631Y-53385721D03*
%TO.N,GND*%
X110554537Y-54350000D03*
%TO.N,+3.3VA*%
X119783963Y-56000000D03*
%TO.N,GND*%
X117627409Y-57862674D03*
%TO.N,+3.3V*%
X113600000Y-54697082D03*
%TO.N,Net-(U1-MCLK)*%
X113799743Y-53600000D03*
%TO.N,Net-(U2A-+)*%
X134000000Y-54000000D03*
%TO.N,Net-(U2A--)*%
X122463106Y-54430037D03*
%TO.N,Net-(U1-MCLK)*%
X113000000Y-57437432D03*
%TO.N,Net-(J1-Pin_7)*%
X111181555Y-59342779D03*
%TO.N,Net-(U2A--)*%
X124195725Y-53433781D03*
%TO.N,Net-(U2A-+)*%
X124578679Y-56000000D03*
%TO.N,Net-(J1-Pin_7)*%
X112000000Y-52000000D03*
%TO.N,Net-(U2B-+)*%
X132423652Y-57610915D03*
X130000000Y-57000000D03*
%TO.N,GND*%
X120005934Y-54956974D03*
%TO.N,VMID*%
X133462543Y-48657095D03*
%TO.N,GND*%
X126901161Y-53256640D03*
%TO.N,VMID*%
X120000000Y-58000000D03*
%TO.N,GND*%
X127000000Y-58000000D03*
%TO.N,VMID*%
X127000000Y-50000000D03*
%TO.N,+3.3V*%
X113000000Y-50000000D03*
%TO.N,GND*%
X123000000Y-64000000D03*
X110000000Y-64000000D03*
%TO.N,Net-(C9-Pad2)*%
X131472213Y-54290235D03*
%TO.N,+3.3VA*%
X129478492Y-54473630D03*
%TO.N,GND*%
X110620516Y-51850000D03*
%TO.N,Net-(J1-Pin_8)*%
X112000000Y-60000000D03*
X113000000Y-53000000D03*
%TO.N,+3.3VA*%
X116999863Y-61003629D03*
X125000000Y-63000000D03*
%TO.N,GND*%
X113000000Y-61000000D03*
%TO.N,+3.3V*%
X110975735Y-61200000D03*
%TD*%
%TA.AperFunction,Conductor*%
%TO.N,+3.3V*%
G36*
X115276198Y-49197496D02*
G01*
X115321953Y-49250300D01*
X115333159Y-49301811D01*
X115333159Y-50153950D01*
X115313474Y-50220989D01*
X115260670Y-50266744D01*
X115256612Y-50268511D01*
X115203274Y-50290604D01*
X115203264Y-50290609D01*
X115072161Y-50378210D01*
X115072157Y-50378213D01*
X114960663Y-50489707D01*
X114960660Y-50489711D01*
X114873059Y-50620814D01*
X114873052Y-50620827D01*
X114812714Y-50766498D01*
X114812711Y-50766510D01*
X114781950Y-50921153D01*
X114781950Y-51078846D01*
X114812711Y-51233489D01*
X114812714Y-51233501D01*
X114873052Y-51379172D01*
X114873059Y-51379185D01*
X114960660Y-51510288D01*
X114960663Y-51510292D01*
X115072160Y-51621789D01*
X115203265Y-51709390D01*
X115203271Y-51709394D01*
X115256614Y-51731489D01*
X115311014Y-51775326D01*
X115333080Y-51841620D01*
X115333159Y-51846048D01*
X115333159Y-61177811D01*
X115333159Y-63177811D01*
X115370500Y-63177811D01*
X115437539Y-63197496D01*
X115483294Y-63250300D01*
X115494500Y-63301811D01*
X115494500Y-64053811D01*
X115474815Y-64120850D01*
X115422011Y-64166605D01*
X115370500Y-64177811D01*
X110924500Y-64177811D01*
X110857461Y-64158126D01*
X110811706Y-64105322D01*
X110800500Y-64053811D01*
X110800500Y-63921155D01*
X110800499Y-63921153D01*
X110788387Y-63860263D01*
X110769737Y-63766503D01*
X110744262Y-63705000D01*
X110709397Y-63620827D01*
X110709390Y-63620814D01*
X110621789Y-63489711D01*
X110621786Y-63489707D01*
X110510292Y-63378213D01*
X110510288Y-63378210D01*
X110379185Y-63290609D01*
X110379172Y-63290602D01*
X110233501Y-63230264D01*
X110233489Y-63230261D01*
X110078845Y-63199500D01*
X110078842Y-63199500D01*
X109921158Y-63199500D01*
X109921155Y-63199500D01*
X109766510Y-63230261D01*
X109766498Y-63230264D01*
X109620827Y-63290602D01*
X109620814Y-63290609D01*
X109489711Y-63378210D01*
X109489707Y-63378213D01*
X109378213Y-63489707D01*
X109378210Y-63489711D01*
X109290609Y-63620814D01*
X109290602Y-63620827D01*
X109230264Y-63766498D01*
X109230261Y-63766510D01*
X109199500Y-63921153D01*
X109199500Y-64053811D01*
X109179815Y-64120850D01*
X109127011Y-64166605D01*
X109075500Y-64177811D01*
X108457159Y-64177811D01*
X108390120Y-64158126D01*
X108344365Y-64105322D01*
X108333159Y-64053811D01*
X108333159Y-59263932D01*
X110381055Y-59263932D01*
X110381055Y-59421625D01*
X110411816Y-59576268D01*
X110411819Y-59576280D01*
X110472157Y-59721951D01*
X110472164Y-59721964D01*
X110559765Y-59853067D01*
X110559768Y-59853071D01*
X110671262Y-59964565D01*
X110671266Y-59964568D01*
X110802369Y-60052169D01*
X110802382Y-60052176D01*
X110948053Y-60112514D01*
X110948058Y-60112516D01*
X111102708Y-60143278D01*
X111102711Y-60143279D01*
X111102713Y-60143279D01*
X111110931Y-60143279D01*
X111177970Y-60162964D01*
X111223725Y-60215768D01*
X111229591Y-60231281D01*
X111230264Y-60233501D01*
X111290602Y-60379172D01*
X111290609Y-60379185D01*
X111378210Y-60510288D01*
X111378213Y-60510292D01*
X111489707Y-60621786D01*
X111489711Y-60621789D01*
X111620814Y-60709390D01*
X111620827Y-60709397D01*
X111758683Y-60766498D01*
X111766503Y-60769737D01*
X111921153Y-60800499D01*
X111921156Y-60800500D01*
X112075500Y-60800500D01*
X112142539Y-60820185D01*
X112188294Y-60872989D01*
X112199500Y-60924500D01*
X112199500Y-61078846D01*
X112230261Y-61233489D01*
X112230264Y-61233501D01*
X112290602Y-61379172D01*
X112290609Y-61379185D01*
X112378210Y-61510288D01*
X112378213Y-61510292D01*
X112489707Y-61621786D01*
X112489711Y-61621789D01*
X112620814Y-61709390D01*
X112620827Y-61709397D01*
X112766498Y-61769735D01*
X112766503Y-61769737D01*
X112921153Y-61800499D01*
X112921156Y-61800500D01*
X112921158Y-61800500D01*
X113078844Y-61800500D01*
X113078845Y-61800499D01*
X113233497Y-61769737D01*
X113379179Y-61709394D01*
X113510289Y-61621789D01*
X113621789Y-61510289D01*
X113709394Y-61379179D01*
X113769737Y-61233497D01*
X113800500Y-61078842D01*
X113800500Y-60921158D01*
X113800500Y-60921155D01*
X113800499Y-60921153D01*
X113769737Y-60766503D01*
X113709794Y-60621786D01*
X113709397Y-60620827D01*
X113709390Y-60620814D01*
X113621789Y-60489711D01*
X113621786Y-60489707D01*
X113510292Y-60378213D01*
X113510288Y-60378210D01*
X113379185Y-60290609D01*
X113379172Y-60290602D01*
X113233501Y-60230264D01*
X113233489Y-60230261D01*
X113078845Y-60199500D01*
X113078842Y-60199500D01*
X112924500Y-60199500D01*
X112857461Y-60179815D01*
X112811706Y-60127011D01*
X112800500Y-60075500D01*
X112800500Y-59921155D01*
X112800499Y-59921153D01*
X112797763Y-59907396D01*
X112769737Y-59766503D01*
X112769382Y-59765645D01*
X112709397Y-59620827D01*
X112709390Y-59620814D01*
X112621789Y-59489711D01*
X112621786Y-59489707D01*
X112510292Y-59378213D01*
X112510288Y-59378210D01*
X112379185Y-59290609D01*
X112379172Y-59290602D01*
X112233501Y-59230264D01*
X112233489Y-59230261D01*
X112078845Y-59199500D01*
X112078842Y-59199500D01*
X112070624Y-59199500D01*
X112003585Y-59179815D01*
X111957830Y-59127011D01*
X111951964Y-59111498D01*
X111951290Y-59109277D01*
X111890952Y-58963606D01*
X111890945Y-58963593D01*
X111803344Y-58832490D01*
X111803341Y-58832486D01*
X111691847Y-58720992D01*
X111691843Y-58720989D01*
X111560740Y-58633388D01*
X111560727Y-58633381D01*
X111415056Y-58573043D01*
X111415044Y-58573040D01*
X111260400Y-58542279D01*
X111260397Y-58542279D01*
X111102713Y-58542279D01*
X111102710Y-58542279D01*
X110948065Y-58573040D01*
X110948053Y-58573043D01*
X110802382Y-58633381D01*
X110802369Y-58633388D01*
X110671266Y-58720989D01*
X110671262Y-58720992D01*
X110559768Y-58832486D01*
X110559765Y-58832490D01*
X110472164Y-58963593D01*
X110472157Y-58963606D01*
X110411819Y-59109277D01*
X110411816Y-59109289D01*
X110381055Y-59263932D01*
X108333159Y-59263932D01*
X108333159Y-57358585D01*
X112199500Y-57358585D01*
X112199500Y-57516278D01*
X112230261Y-57670921D01*
X112230264Y-57670933D01*
X112290602Y-57816604D01*
X112290609Y-57816617D01*
X112378210Y-57947720D01*
X112378213Y-57947724D01*
X112489707Y-58059218D01*
X112489711Y-58059221D01*
X112620814Y-58146822D01*
X112620827Y-58146829D01*
X112766498Y-58207167D01*
X112766503Y-58207169D01*
X112921153Y-58237931D01*
X112921156Y-58237932D01*
X112921158Y-58237932D01*
X113078844Y-58237932D01*
X113078845Y-58237931D01*
X113233497Y-58207169D01*
X113379179Y-58146826D01*
X113510289Y-58059221D01*
X113621789Y-57947721D01*
X113709394Y-57816611D01*
X113769737Y-57670929D01*
X113800500Y-57516274D01*
X113800500Y-57358590D01*
X113800500Y-57358587D01*
X113800499Y-57358585D01*
X113769737Y-57203935D01*
X113736292Y-57123191D01*
X113709397Y-57058259D01*
X113709390Y-57058246D01*
X113621789Y-56927143D01*
X113621786Y-56927139D01*
X113510292Y-56815645D01*
X113510288Y-56815642D01*
X113379185Y-56728041D01*
X113379172Y-56728034D01*
X113233501Y-56667696D01*
X113233489Y-56667693D01*
X113078845Y-56636932D01*
X113078842Y-56636932D01*
X112921158Y-56636932D01*
X112921155Y-56636932D01*
X112766510Y-56667693D01*
X112766498Y-56667696D01*
X112620827Y-56728034D01*
X112620814Y-56728041D01*
X112489711Y-56815642D01*
X112489707Y-56815645D01*
X112378213Y-56927139D01*
X112378210Y-56927143D01*
X112290609Y-57058246D01*
X112290602Y-57058259D01*
X112230264Y-57203930D01*
X112230261Y-57203942D01*
X112199500Y-57358585D01*
X108333159Y-57358585D01*
X108333159Y-54271153D01*
X109754037Y-54271153D01*
X109754037Y-54428846D01*
X109784798Y-54583489D01*
X109784801Y-54583501D01*
X109845139Y-54729172D01*
X109845146Y-54729185D01*
X109932747Y-54860288D01*
X109932750Y-54860292D01*
X110044244Y-54971786D01*
X110044248Y-54971789D01*
X110175351Y-55059390D01*
X110175364Y-55059397D01*
X110321035Y-55119735D01*
X110321040Y-55119737D01*
X110448171Y-55145025D01*
X110475690Y-55150499D01*
X110475693Y-55150500D01*
X110475695Y-55150500D01*
X110633381Y-55150500D01*
X110633382Y-55150499D01*
X110788034Y-55119737D01*
X110933716Y-55059394D01*
X111064826Y-54971789D01*
X111176326Y-54860289D01*
X111263931Y-54729179D01*
X111324274Y-54583497D01*
X111355037Y-54428842D01*
X111355037Y-54271158D01*
X111355037Y-54271155D01*
X111355036Y-54271153D01*
X111324275Y-54116510D01*
X111324274Y-54116503D01*
X111282870Y-54016544D01*
X111263934Y-53970827D01*
X111263927Y-53970814D01*
X111176326Y-53839711D01*
X111176323Y-53839707D01*
X111064829Y-53728213D01*
X111064825Y-53728210D01*
X110933722Y-53640609D01*
X110933709Y-53640602D01*
X110788038Y-53580264D01*
X110788026Y-53580261D01*
X110633382Y-53549500D01*
X110633379Y-53549500D01*
X110475695Y-53549500D01*
X110475692Y-53549500D01*
X110321047Y-53580261D01*
X110321035Y-53580264D01*
X110175364Y-53640602D01*
X110175351Y-53640609D01*
X110044248Y-53728210D01*
X110044244Y-53728213D01*
X109932750Y-53839707D01*
X109932747Y-53839711D01*
X109845146Y-53970814D01*
X109845139Y-53970827D01*
X109784801Y-54116498D01*
X109784798Y-54116510D01*
X109754037Y-54271153D01*
X108333159Y-54271153D01*
X108333159Y-51771153D01*
X109820016Y-51771153D01*
X109820016Y-51928846D01*
X109850777Y-52083489D01*
X109850780Y-52083501D01*
X109911118Y-52229172D01*
X109911125Y-52229185D01*
X109998726Y-52360288D01*
X109998729Y-52360292D01*
X110110223Y-52471786D01*
X110110227Y-52471789D01*
X110241330Y-52559390D01*
X110241343Y-52559397D01*
X110387014Y-52619735D01*
X110387019Y-52619737D01*
X110541669Y-52650499D01*
X110541672Y-52650500D01*
X110541674Y-52650500D01*
X110699360Y-52650500D01*
X110699361Y-52650499D01*
X110854013Y-52619737D01*
X110999695Y-52559394D01*
X111130805Y-52471789D01*
X111156853Y-52445740D01*
X111218174Y-52412256D01*
X111287866Y-52417240D01*
X111343800Y-52459110D01*
X111347636Y-52464531D01*
X111378210Y-52510288D01*
X111378213Y-52510292D01*
X111489707Y-52621786D01*
X111489711Y-52621789D01*
X111620814Y-52709390D01*
X111620827Y-52709397D01*
X111758695Y-52766503D01*
X111766503Y-52769737D01*
X111916131Y-52799500D01*
X111921153Y-52800499D01*
X111921156Y-52800500D01*
X112075500Y-52800500D01*
X112142539Y-52820185D01*
X112188294Y-52872989D01*
X112199500Y-52924500D01*
X112199500Y-53078846D01*
X112230261Y-53233489D01*
X112230264Y-53233501D01*
X112290602Y-53379172D01*
X112290609Y-53379185D01*
X112378210Y-53510288D01*
X112378213Y-53510292D01*
X112489707Y-53621786D01*
X112489711Y-53621789D01*
X112620814Y-53709390D01*
X112620827Y-53709397D01*
X112766498Y-53769735D01*
X112766503Y-53769737D01*
X112921153Y-53800499D01*
X112921156Y-53800500D01*
X112921158Y-53800500D01*
X112933484Y-53800500D01*
X113000523Y-53820185D01*
X113046278Y-53872989D01*
X113048045Y-53877048D01*
X113090345Y-53979172D01*
X113090352Y-53979185D01*
X113177953Y-54110288D01*
X113177956Y-54110292D01*
X113289450Y-54221786D01*
X113289454Y-54221789D01*
X113420557Y-54309390D01*
X113420570Y-54309397D01*
X113566241Y-54369735D01*
X113566246Y-54369737D01*
X113720896Y-54400499D01*
X113720899Y-54400500D01*
X113720901Y-54400500D01*
X113878587Y-54400500D01*
X113878588Y-54400499D01*
X114033240Y-54369737D01*
X114178922Y-54309394D01*
X114310032Y-54221789D01*
X114421532Y-54110289D01*
X114509137Y-53979179D01*
X114512597Y-53970827D01*
X114566906Y-53839711D01*
X114569480Y-53833497D01*
X114600243Y-53678842D01*
X114600243Y-53521158D01*
X114600243Y-53521155D01*
X114600242Y-53521153D01*
X114599467Y-53517259D01*
X114569480Y-53366503D01*
X114569478Y-53366498D01*
X114509140Y-53220827D01*
X114509133Y-53220814D01*
X114421532Y-53089711D01*
X114421529Y-53089707D01*
X114310035Y-52978213D01*
X114310031Y-52978210D01*
X114178928Y-52890609D01*
X114178915Y-52890602D01*
X114033244Y-52830264D01*
X114033232Y-52830261D01*
X113878588Y-52799500D01*
X113878585Y-52799500D01*
X113866259Y-52799500D01*
X113799220Y-52779815D01*
X113753465Y-52727011D01*
X113751698Y-52722952D01*
X113709397Y-52620827D01*
X113709390Y-52620814D01*
X113621789Y-52489711D01*
X113621786Y-52489707D01*
X113510292Y-52378213D01*
X113510288Y-52378210D01*
X113379185Y-52290609D01*
X113379172Y-52290602D01*
X113233501Y-52230264D01*
X113233489Y-52230261D01*
X113078845Y-52199500D01*
X113078842Y-52199500D01*
X112924500Y-52199500D01*
X112857461Y-52179815D01*
X112811706Y-52127011D01*
X112800500Y-52075500D01*
X112800500Y-51921155D01*
X112800499Y-51921153D01*
X112769737Y-51766503D01*
X112709795Y-51621789D01*
X112709397Y-51620827D01*
X112709390Y-51620814D01*
X112621789Y-51489711D01*
X112621786Y-51489707D01*
X112510292Y-51378213D01*
X112510288Y-51378210D01*
X112379185Y-51290609D01*
X112379172Y-51290602D01*
X112233501Y-51230264D01*
X112233489Y-51230261D01*
X112078845Y-51199500D01*
X112078842Y-51199500D01*
X111921158Y-51199500D01*
X111921155Y-51199500D01*
X111766510Y-51230261D01*
X111766498Y-51230264D01*
X111620827Y-51290602D01*
X111620814Y-51290609D01*
X111489711Y-51378210D01*
X111463661Y-51404260D01*
X111402337Y-51437744D01*
X111332646Y-51432758D01*
X111276713Y-51390886D01*
X111272879Y-51385467D01*
X111242308Y-51339715D01*
X111242302Y-51339707D01*
X111130808Y-51228213D01*
X111130804Y-51228210D01*
X110999701Y-51140609D01*
X110999688Y-51140602D01*
X110854017Y-51080264D01*
X110854005Y-51080261D01*
X110699361Y-51049500D01*
X110699358Y-51049500D01*
X110541674Y-51049500D01*
X110541671Y-51049500D01*
X110387026Y-51080261D01*
X110387014Y-51080264D01*
X110241343Y-51140602D01*
X110241330Y-51140609D01*
X110110227Y-51228210D01*
X110110223Y-51228213D01*
X109998729Y-51339707D01*
X109998726Y-51339711D01*
X109911125Y-51470814D01*
X109911118Y-51470827D01*
X109850780Y-51616498D01*
X109850777Y-51616510D01*
X109820016Y-51771153D01*
X108333159Y-51771153D01*
X108333159Y-49301811D01*
X108352844Y-49234772D01*
X108405648Y-49189017D01*
X108457159Y-49177811D01*
X115209159Y-49177811D01*
X115276198Y-49197496D01*
G37*
%TD.AperFunction*%
%TD*%
%TA.AperFunction,Conductor*%
%TO.N,VMID*%
G36*
X134943039Y-48377280D02*
G01*
X134988794Y-48430084D01*
X135000000Y-48481595D01*
X135000000Y-53699016D01*
X134980315Y-53766055D01*
X134927511Y-53811810D01*
X134858353Y-53821754D01*
X134794797Y-53792729D01*
X134761439Y-53746469D01*
X134709395Y-53620823D01*
X134709390Y-53620814D01*
X134621789Y-53489711D01*
X134621786Y-53489707D01*
X134510292Y-53378213D01*
X134510288Y-53378210D01*
X134379185Y-53290609D01*
X134379172Y-53290602D01*
X134233501Y-53230264D01*
X134233489Y-53230261D01*
X134078845Y-53199500D01*
X134078842Y-53199500D01*
X133921158Y-53199500D01*
X133921155Y-53199500D01*
X133766510Y-53230261D01*
X133766498Y-53230264D01*
X133620827Y-53290602D01*
X133620814Y-53290609D01*
X133489711Y-53378210D01*
X133489707Y-53378213D01*
X133378213Y-53489707D01*
X133378210Y-53489711D01*
X133290609Y-53620814D01*
X133290602Y-53620827D01*
X133230264Y-53766498D01*
X133230261Y-53766510D01*
X133199500Y-53921153D01*
X133199500Y-54078846D01*
X133230261Y-54233489D01*
X133230264Y-54233501D01*
X133290602Y-54379172D01*
X133290609Y-54379185D01*
X133378210Y-54510288D01*
X133378213Y-54510292D01*
X133489707Y-54621786D01*
X133489711Y-54621789D01*
X133620814Y-54709390D01*
X133620827Y-54709397D01*
X133766498Y-54769735D01*
X133766503Y-54769737D01*
X133921153Y-54800499D01*
X133921156Y-54800500D01*
X133921158Y-54800500D01*
X134078844Y-54800500D01*
X134078845Y-54800499D01*
X134233497Y-54769737D01*
X134379179Y-54709394D01*
X134510289Y-54621789D01*
X134621789Y-54510289D01*
X134709394Y-54379179D01*
X134761439Y-54253531D01*
X134805280Y-54199127D01*
X134871574Y-54177062D01*
X134939273Y-54194341D01*
X134986884Y-54245478D01*
X135000000Y-54300983D01*
X135000000Y-57876000D01*
X134980315Y-57943039D01*
X134927511Y-57988794D01*
X134876000Y-58000000D01*
X133313387Y-58000000D01*
X133246348Y-57980315D01*
X133200593Y-57927511D01*
X133190649Y-57858353D01*
X133192409Y-57850428D01*
X133192201Y-57850387D01*
X133224151Y-57689761D01*
X133224152Y-57689759D01*
X133224152Y-57532070D01*
X133224151Y-57532068D01*
X133193547Y-57378213D01*
X133193389Y-57377418D01*
X133166563Y-57312653D01*
X133133049Y-57231742D01*
X133133042Y-57231729D01*
X133045441Y-57100626D01*
X133045438Y-57100622D01*
X132933944Y-56989128D01*
X132933940Y-56989125D01*
X132802837Y-56901524D01*
X132802824Y-56901517D01*
X132657153Y-56841179D01*
X132657141Y-56841176D01*
X132502497Y-56810415D01*
X132502494Y-56810415D01*
X132344810Y-56810415D01*
X132344807Y-56810415D01*
X132190162Y-56841176D01*
X132190150Y-56841179D01*
X132044479Y-56901517D01*
X132044466Y-56901524D01*
X131913363Y-56989125D01*
X131913359Y-56989128D01*
X131801867Y-57100620D01*
X131801864Y-57100624D01*
X131769770Y-57148655D01*
X131716157Y-57193459D01*
X131647271Y-57202235D01*
X131568538Y-57189765D01*
X131568533Y-57189765D01*
X131363829Y-57189765D01*
X131302366Y-57199500D01*
X131161645Y-57221788D01*
X131156900Y-57222927D01*
X131156613Y-57221734D01*
X131092468Y-57223562D01*
X131032638Y-57187477D01*
X131001815Y-57124773D01*
X131000000Y-57103638D01*
X131000000Y-55146671D01*
X131019685Y-55079632D01*
X131072489Y-55033877D01*
X131141647Y-55023933D01*
X131171446Y-55032108D01*
X131238716Y-55059972D01*
X131393366Y-55090734D01*
X131393369Y-55090735D01*
X131393371Y-55090735D01*
X131551057Y-55090735D01*
X131551058Y-55090734D01*
X131705710Y-55059972D01*
X131851392Y-54999629D01*
X131982502Y-54912024D01*
X132094002Y-54800524D01*
X132181607Y-54669414D01*
X132241950Y-54523732D01*
X132272713Y-54369077D01*
X132272713Y-54211393D01*
X132272713Y-54211390D01*
X132272712Y-54211388D01*
X132269760Y-54196547D01*
X132241950Y-54056738D01*
X132239517Y-54050864D01*
X132181610Y-53911062D01*
X132181603Y-53911049D01*
X132094002Y-53779946D01*
X132093999Y-53779942D01*
X131982505Y-53668448D01*
X131982501Y-53668445D01*
X131851398Y-53580844D01*
X131851385Y-53580837D01*
X131705714Y-53520499D01*
X131705702Y-53520496D01*
X131551058Y-53489735D01*
X131551055Y-53489735D01*
X131393371Y-53489735D01*
X131393368Y-53489735D01*
X131238723Y-53520496D01*
X131238711Y-53520499D01*
X131171452Y-53548359D01*
X131101983Y-53555828D01*
X131039504Y-53524552D01*
X131003852Y-53464463D01*
X131000000Y-53433798D01*
X131000000Y-53000000D01*
X127744166Y-53000000D01*
X127677127Y-52980315D01*
X127631372Y-52927511D01*
X127629614Y-52923476D01*
X127610555Y-52877461D01*
X127610551Y-52877454D01*
X127522950Y-52746351D01*
X127522947Y-52746347D01*
X127411453Y-52634853D01*
X127411449Y-52634850D01*
X127280346Y-52547249D01*
X127280333Y-52547242D01*
X127134662Y-52486904D01*
X127134650Y-52486901D01*
X126980006Y-52456140D01*
X126980003Y-52456140D01*
X126822319Y-52456140D01*
X126822316Y-52456140D01*
X126667671Y-52486901D01*
X126667659Y-52486904D01*
X126521988Y-52547242D01*
X126521975Y-52547249D01*
X126390872Y-52634850D01*
X126390868Y-52634853D01*
X126279374Y-52746347D01*
X126279371Y-52746351D01*
X126191770Y-52877454D01*
X126191763Y-52877467D01*
X126131425Y-53023138D01*
X126131422Y-53023150D01*
X126100661Y-53177793D01*
X126100661Y-53335486D01*
X126131422Y-53490129D01*
X126131425Y-53490141D01*
X126191763Y-53635812D01*
X126191770Y-53635825D01*
X126279371Y-53766928D01*
X126279374Y-53766932D01*
X126390868Y-53878426D01*
X126390872Y-53878429D01*
X126521975Y-53966030D01*
X126521988Y-53966037D01*
X126667659Y-54026375D01*
X126667664Y-54026377D01*
X126790768Y-54050864D01*
X126822314Y-54057139D01*
X126822317Y-54057140D01*
X126876000Y-54057140D01*
X126943039Y-54076825D01*
X126988794Y-54129629D01*
X127000000Y-54181140D01*
X127000000Y-57082052D01*
X126980315Y-57149091D01*
X126927511Y-57194846D01*
X126900192Y-57203669D01*
X126766508Y-57230261D01*
X126766498Y-57230264D01*
X126620827Y-57290602D01*
X126620814Y-57290609D01*
X126489711Y-57378210D01*
X126489707Y-57378213D01*
X126378213Y-57489707D01*
X126378210Y-57489711D01*
X126290609Y-57620814D01*
X126290602Y-57620827D01*
X126230264Y-57766498D01*
X126230261Y-57766510D01*
X126199500Y-57921153D01*
X126199500Y-58078846D01*
X126230261Y-58233489D01*
X126230264Y-58233501D01*
X126290602Y-58379172D01*
X126290609Y-58379185D01*
X126378210Y-58510288D01*
X126378213Y-58510292D01*
X126489707Y-58621786D01*
X126489711Y-58621789D01*
X126620814Y-58709390D01*
X126620827Y-58709397D01*
X126746469Y-58761439D01*
X126800873Y-58805280D01*
X126822938Y-58871574D01*
X126805659Y-58939273D01*
X126754522Y-58986884D01*
X126699017Y-59000000D01*
X123861734Y-59000000D01*
X123794695Y-58980315D01*
X123748940Y-58927511D01*
X123738996Y-58858353D01*
X123739261Y-58856602D01*
X123762577Y-58709394D01*
X123766681Y-58683482D01*
X123766681Y-58478778D01*
X123734658Y-58276596D01*
X123723369Y-58241853D01*
X123671399Y-58081906D01*
X123619635Y-57980315D01*
X123578468Y-57899520D01*
X123538430Y-57844412D01*
X123458152Y-57733916D01*
X123313394Y-57589158D01*
X123147794Y-57468845D01*
X123147793Y-57468844D01*
X123147791Y-57468843D01*
X123090834Y-57439821D01*
X122965404Y-57375911D01*
X122770715Y-57312652D01*
X122596176Y-57285008D01*
X122568533Y-57280630D01*
X122363829Y-57280630D01*
X122339510Y-57284481D01*
X122161646Y-57312652D01*
X121966957Y-57375911D01*
X121784567Y-57468845D01*
X121618967Y-57589158D01*
X121474209Y-57733916D01*
X121353896Y-57899516D01*
X121260962Y-58081906D01*
X121197703Y-58276595D01*
X121165681Y-58478778D01*
X121165681Y-58683482D01*
X121169785Y-58709394D01*
X121193101Y-58856602D01*
X121184147Y-58925895D01*
X121139150Y-58979347D01*
X121072399Y-58999987D01*
X121070628Y-59000000D01*
X119124000Y-59000000D01*
X119056961Y-58980315D01*
X119011206Y-58927511D01*
X119000000Y-58876000D01*
X119000000Y-57124000D01*
X119019685Y-57056961D01*
X119072489Y-57011206D01*
X119124000Y-57000000D01*
X121000000Y-57000000D01*
X121000000Y-55921153D01*
X123778179Y-55921153D01*
X123778179Y-56078846D01*
X123808940Y-56233489D01*
X123808943Y-56233501D01*
X123869281Y-56379172D01*
X123869288Y-56379185D01*
X123956889Y-56510288D01*
X123956892Y-56510292D01*
X124068386Y-56621786D01*
X124068390Y-56621789D01*
X124199493Y-56709390D01*
X124199506Y-56709397D01*
X124337374Y-56766503D01*
X124345182Y-56769737D01*
X124499832Y-56800499D01*
X124499835Y-56800500D01*
X124499837Y-56800500D01*
X124657523Y-56800500D01*
X124657524Y-56800499D01*
X124812176Y-56769737D01*
X124957858Y-56709394D01*
X125088968Y-56621789D01*
X125200468Y-56510289D01*
X125288073Y-56379179D01*
X125348416Y-56233497D01*
X125379179Y-56078842D01*
X125379179Y-55921158D01*
X125379179Y-55921155D01*
X125379178Y-55921153D01*
X125348417Y-55766510D01*
X125348416Y-55766503D01*
X125348414Y-55766498D01*
X125288076Y-55620827D01*
X125288069Y-55620814D01*
X125200468Y-55489711D01*
X125200465Y-55489707D01*
X125088971Y-55378213D01*
X125088967Y-55378210D01*
X124957864Y-55290609D01*
X124957851Y-55290602D01*
X124812180Y-55230264D01*
X124812168Y-55230261D01*
X124657524Y-55199500D01*
X124657521Y-55199500D01*
X124499837Y-55199500D01*
X124499834Y-55199500D01*
X124345189Y-55230261D01*
X124345177Y-55230264D01*
X124199506Y-55290602D01*
X124199493Y-55290609D01*
X124068390Y-55378210D01*
X124068386Y-55378213D01*
X123956892Y-55489707D01*
X123956889Y-55489711D01*
X123869288Y-55620814D01*
X123869281Y-55620827D01*
X123808943Y-55766498D01*
X123808940Y-55766510D01*
X123778179Y-55921153D01*
X121000000Y-55921153D01*
X121000000Y-54351190D01*
X121662606Y-54351190D01*
X121662606Y-54508883D01*
X121693367Y-54663526D01*
X121693370Y-54663538D01*
X121753708Y-54809209D01*
X121753715Y-54809222D01*
X121841316Y-54940325D01*
X121841319Y-54940329D01*
X121952813Y-55051823D01*
X121952817Y-55051826D01*
X122083920Y-55139427D01*
X122083933Y-55139434D01*
X122229604Y-55199772D01*
X122229609Y-55199774D01*
X122382887Y-55230263D01*
X122384259Y-55230536D01*
X122384262Y-55230537D01*
X122384264Y-55230537D01*
X122541950Y-55230537D01*
X122541951Y-55230536D01*
X122696603Y-55199774D01*
X122842285Y-55139431D01*
X122973395Y-55051826D01*
X123084895Y-54940326D01*
X123172500Y-54809216D01*
X123232843Y-54663534D01*
X123263606Y-54508879D01*
X123263606Y-54351195D01*
X123263606Y-54351192D01*
X123263605Y-54351190D01*
X123244179Y-54253531D01*
X123232843Y-54196540D01*
X123184093Y-54078846D01*
X123172503Y-54050864D01*
X123172496Y-54050851D01*
X123084895Y-53919748D01*
X123084892Y-53919744D01*
X122973398Y-53808250D01*
X122973394Y-53808247D01*
X122842291Y-53720646D01*
X122842278Y-53720639D01*
X122696607Y-53660301D01*
X122696595Y-53660298D01*
X122541951Y-53629537D01*
X122541948Y-53629537D01*
X122384264Y-53629537D01*
X122384261Y-53629537D01*
X122229616Y-53660298D01*
X122229604Y-53660301D01*
X122083933Y-53720639D01*
X122083920Y-53720646D01*
X121952817Y-53808247D01*
X121952813Y-53808250D01*
X121841319Y-53919744D01*
X121841316Y-53919748D01*
X121753715Y-54050851D01*
X121753708Y-54050864D01*
X121693370Y-54196535D01*
X121693367Y-54196547D01*
X121662606Y-54351190D01*
X121000000Y-54351190D01*
X121000000Y-54000000D01*
X118124000Y-54000000D01*
X118056961Y-53980315D01*
X118011206Y-53927511D01*
X118000000Y-53876000D01*
X118000000Y-53354934D01*
X123395225Y-53354934D01*
X123395225Y-53512627D01*
X123425986Y-53667270D01*
X123425989Y-53667282D01*
X123486327Y-53812953D01*
X123486334Y-53812966D01*
X123573935Y-53944069D01*
X123573938Y-53944073D01*
X123685432Y-54055567D01*
X123685436Y-54055570D01*
X123816539Y-54143171D01*
X123816552Y-54143178D01*
X123945369Y-54196535D01*
X123962228Y-54203518D01*
X124112901Y-54233489D01*
X124116878Y-54234280D01*
X124116881Y-54234281D01*
X124116883Y-54234281D01*
X124274569Y-54234281D01*
X124274570Y-54234280D01*
X124429222Y-54203518D01*
X124574904Y-54143175D01*
X124706014Y-54055570D01*
X124817514Y-53944070D01*
X124905119Y-53812960D01*
X124965462Y-53667278D01*
X124996225Y-53512623D01*
X124996225Y-53354939D01*
X124996225Y-53354936D01*
X124996224Y-53354934D01*
X124965462Y-53200284D01*
X124956146Y-53177793D01*
X124905122Y-53054608D01*
X124905115Y-53054595D01*
X124817514Y-52923492D01*
X124817511Y-52923488D01*
X124706017Y-52811994D01*
X124706013Y-52811991D01*
X124574910Y-52724390D01*
X124574897Y-52724383D01*
X124429226Y-52664045D01*
X124429214Y-52664042D01*
X124274570Y-52633281D01*
X124274567Y-52633281D01*
X124116883Y-52633281D01*
X124116880Y-52633281D01*
X123962235Y-52664042D01*
X123962223Y-52664045D01*
X123816552Y-52724383D01*
X123816539Y-52724390D01*
X123685436Y-52811991D01*
X123685432Y-52811994D01*
X123573938Y-52923488D01*
X123573935Y-52923492D01*
X123486334Y-53054595D01*
X123486327Y-53054608D01*
X123425989Y-53200279D01*
X123425986Y-53200291D01*
X123395225Y-53354934D01*
X118000000Y-53354934D01*
X118000000Y-50210495D01*
X119199500Y-50210495D01*
X119199500Y-50368188D01*
X119230261Y-50522831D01*
X119230264Y-50522843D01*
X119290602Y-50668514D01*
X119290609Y-50668527D01*
X119378210Y-50799630D01*
X119378213Y-50799634D01*
X119489707Y-50911128D01*
X119489711Y-50911131D01*
X119620814Y-50998732D01*
X119620827Y-50998739D01*
X119766498Y-51059077D01*
X119766503Y-51059079D01*
X119921153Y-51089841D01*
X119921156Y-51089842D01*
X119921158Y-51089842D01*
X120078844Y-51089842D01*
X120078845Y-51089841D01*
X120233497Y-51059079D01*
X120379179Y-50998736D01*
X120510289Y-50911131D01*
X120562642Y-50858778D01*
X121165681Y-50858778D01*
X121165681Y-51063481D01*
X121197703Y-51265664D01*
X121260962Y-51460353D01*
X121353896Y-51642743D01*
X121474209Y-51808343D01*
X121618967Y-51953101D01*
X121773930Y-52065686D01*
X121784571Y-52073417D01*
X121900788Y-52132633D01*
X121966957Y-52166348D01*
X121966959Y-52166348D01*
X121966962Y-52166350D01*
X122071318Y-52200257D01*
X122161646Y-52229607D01*
X122262738Y-52245618D01*
X122363829Y-52261630D01*
X122363830Y-52261630D01*
X122568532Y-52261630D01*
X122568533Y-52261630D01*
X122770715Y-52229607D01*
X122965400Y-52166350D01*
X123147791Y-52073417D01*
X123272861Y-51982549D01*
X123313394Y-51953101D01*
X123313396Y-51953098D01*
X123313400Y-51953096D01*
X123458147Y-51808349D01*
X123458149Y-51808345D01*
X123458152Y-51808343D01*
X123524168Y-51717478D01*
X123578468Y-51642740D01*
X123671401Y-51460349D01*
X123734658Y-51265664D01*
X123766681Y-51063482D01*
X123766681Y-50858778D01*
X123752289Y-50767913D01*
X130165681Y-50767913D01*
X130165681Y-50972616D01*
X130197703Y-51174799D01*
X130260962Y-51369488D01*
X130353896Y-51551878D01*
X130474209Y-51717478D01*
X130618967Y-51862236D01*
X130773930Y-51974821D01*
X130784571Y-51982552D01*
X130900788Y-52041768D01*
X130966957Y-52075483D01*
X130966959Y-52075483D01*
X130966962Y-52075485D01*
X131071318Y-52109392D01*
X131161646Y-52138742D01*
X131262738Y-52154753D01*
X131363829Y-52170765D01*
X131363830Y-52170765D01*
X131568532Y-52170765D01*
X131568533Y-52170765D01*
X131770715Y-52138742D01*
X131965400Y-52075485D01*
X132147791Y-51982552D01*
X132240771Y-51914997D01*
X132313394Y-51862236D01*
X132313396Y-51862233D01*
X132313400Y-51862231D01*
X132458147Y-51717484D01*
X132458149Y-51717480D01*
X132458152Y-51717478D01*
X132512451Y-51642740D01*
X132578468Y-51551875D01*
X132671401Y-51369484D01*
X132734658Y-51174799D01*
X132766681Y-50972617D01*
X132766681Y-50767913D01*
X132750939Y-50668521D01*
X132734658Y-50565730D01*
X132671399Y-50371041D01*
X132624764Y-50279516D01*
X132578468Y-50188655D01*
X132570737Y-50178014D01*
X132458152Y-50023051D01*
X132313394Y-49878293D01*
X132147794Y-49757980D01*
X132147793Y-49757979D01*
X132147791Y-49757978D01*
X132090834Y-49728956D01*
X131965404Y-49665046D01*
X131770715Y-49601787D01*
X131596176Y-49574143D01*
X131568533Y-49569765D01*
X131363829Y-49569765D01*
X131339510Y-49573616D01*
X131161646Y-49601787D01*
X130966957Y-49665046D01*
X130784567Y-49757980D01*
X130618967Y-49878293D01*
X130474209Y-50023051D01*
X130353896Y-50188651D01*
X130260962Y-50371041D01*
X130197703Y-50565730D01*
X130165681Y-50767913D01*
X123752289Y-50767913D01*
X123734658Y-50656596D01*
X123671401Y-50461911D01*
X123671399Y-50461908D01*
X123671399Y-50461906D01*
X123625100Y-50371041D01*
X123578468Y-50279520D01*
X123570737Y-50268879D01*
X123458152Y-50113916D01*
X123313394Y-49969158D01*
X123147794Y-49848845D01*
X123147793Y-49848844D01*
X123147791Y-49848843D01*
X123090834Y-49819821D01*
X122965404Y-49755911D01*
X122770715Y-49692652D01*
X122596176Y-49665008D01*
X122568533Y-49660630D01*
X122363829Y-49660630D01*
X122339510Y-49664481D01*
X122161646Y-49692652D01*
X121966957Y-49755911D01*
X121784567Y-49848845D01*
X121618967Y-49969158D01*
X121474209Y-50113916D01*
X121353896Y-50279516D01*
X121260962Y-50461906D01*
X121197703Y-50656595D01*
X121165681Y-50858778D01*
X120562642Y-50858778D01*
X120621789Y-50799631D01*
X120709394Y-50668521D01*
X120714334Y-50656596D01*
X120723067Y-50635508D01*
X120769737Y-50522839D01*
X120800500Y-50368184D01*
X120800500Y-50210500D01*
X120800500Y-50210497D01*
X120800499Y-50210495D01*
X120769738Y-50055852D01*
X120769737Y-50055845D01*
X120769735Y-50055840D01*
X120709397Y-49910169D01*
X120709390Y-49910156D01*
X120621789Y-49779053D01*
X120621786Y-49779049D01*
X120510292Y-49667555D01*
X120510288Y-49667552D01*
X120379185Y-49579951D01*
X120379172Y-49579944D01*
X120233501Y-49519606D01*
X120233489Y-49519603D01*
X120078845Y-49488842D01*
X120078842Y-49488842D01*
X119921158Y-49488842D01*
X119921155Y-49488842D01*
X119766510Y-49519603D01*
X119766498Y-49519606D01*
X119620827Y-49579944D01*
X119620814Y-49579951D01*
X119489711Y-49667552D01*
X119489707Y-49667555D01*
X119378213Y-49779049D01*
X119378210Y-49779053D01*
X119290609Y-49910156D01*
X119290602Y-49910169D01*
X119230264Y-50055840D01*
X119230261Y-50055852D01*
X119199500Y-50210495D01*
X118000000Y-50210495D01*
X118000000Y-48481595D01*
X118019685Y-48414556D01*
X118072489Y-48368801D01*
X118124000Y-48357595D01*
X134876000Y-48357595D01*
X134943039Y-48377280D01*
G37*
%TD.AperFunction*%
%TD*%
%TA.AperFunction,Conductor*%
%TO.N,+3.3VA*%
G36*
X129943039Y-54019685D02*
G01*
X129988794Y-54072489D01*
X130000000Y-54124000D01*
X130000000Y-56082052D01*
X129980315Y-56149091D01*
X129927511Y-56194846D01*
X129900192Y-56203669D01*
X129766508Y-56230261D01*
X129766498Y-56230264D01*
X129620827Y-56290602D01*
X129620814Y-56290609D01*
X129489711Y-56378210D01*
X129489707Y-56378213D01*
X129378213Y-56489707D01*
X129378210Y-56489711D01*
X129290609Y-56620814D01*
X129290602Y-56620827D01*
X129230264Y-56766498D01*
X129230261Y-56766510D01*
X129199500Y-56921153D01*
X129199500Y-57078846D01*
X129230261Y-57233489D01*
X129230264Y-57233501D01*
X129290602Y-57379172D01*
X129290609Y-57379185D01*
X129378210Y-57510288D01*
X129378213Y-57510292D01*
X129489707Y-57621786D01*
X129489711Y-57621789D01*
X129620814Y-57709390D01*
X129620827Y-57709397D01*
X129723124Y-57751769D01*
X129766503Y-57769737D01*
X129818130Y-57780006D01*
X129900191Y-57796330D01*
X129962102Y-57828715D01*
X129996677Y-57889431D01*
X130000000Y-57917947D01*
X130000000Y-64876000D01*
X129980315Y-64943039D01*
X129927511Y-64988794D01*
X129876000Y-65000000D01*
X123300983Y-65000000D01*
X123233944Y-64980315D01*
X123188189Y-64927511D01*
X123178245Y-64858353D01*
X123207270Y-64794797D01*
X123253531Y-64761439D01*
X123379172Y-64709397D01*
X123379172Y-64709396D01*
X123379179Y-64709394D01*
X123510289Y-64621789D01*
X123621789Y-64510289D01*
X123709394Y-64379179D01*
X123769737Y-64233497D01*
X123800500Y-64078842D01*
X123800500Y-63921158D01*
X123800500Y-63921155D01*
X123800499Y-63921153D01*
X123769738Y-63766510D01*
X123769737Y-63766503D01*
X123769735Y-63766498D01*
X123709397Y-63620827D01*
X123709390Y-63620814D01*
X123621789Y-63489711D01*
X123621786Y-63489707D01*
X123510292Y-63378213D01*
X123510288Y-63378210D01*
X123379185Y-63290609D01*
X123379172Y-63290602D01*
X123233501Y-63230264D01*
X123233489Y-63230261D01*
X123078845Y-63199500D01*
X123078842Y-63199500D01*
X122921158Y-63199500D01*
X122921155Y-63199500D01*
X122766510Y-63230261D01*
X122766498Y-63230264D01*
X122620827Y-63290602D01*
X122620814Y-63290609D01*
X122489711Y-63378210D01*
X122489707Y-63378213D01*
X122378213Y-63489707D01*
X122378210Y-63489711D01*
X122290609Y-63620814D01*
X122290602Y-63620827D01*
X122230264Y-63766498D01*
X122230261Y-63766510D01*
X122199500Y-63921153D01*
X122199500Y-64078846D01*
X122230261Y-64233489D01*
X122230264Y-64233501D01*
X122290602Y-64379172D01*
X122290609Y-64379185D01*
X122378210Y-64510288D01*
X122378213Y-64510292D01*
X122489707Y-64621786D01*
X122489711Y-64621789D01*
X122620814Y-64709390D01*
X122620827Y-64709397D01*
X122746469Y-64761439D01*
X122800873Y-64805280D01*
X122822938Y-64871574D01*
X122805659Y-64939273D01*
X122754522Y-64986884D01*
X122699017Y-65000000D01*
X116124000Y-65000000D01*
X116056961Y-64980315D01*
X116011206Y-64927511D01*
X116000000Y-64876000D01*
X116000000Y-55124000D01*
X116019685Y-55056961D01*
X116072489Y-55011206D01*
X116124000Y-55000000D01*
X119096545Y-55000000D01*
X119163584Y-55019685D01*
X119209339Y-55072489D01*
X119218162Y-55099808D01*
X119236195Y-55190465D01*
X119236198Y-55190475D01*
X119296536Y-55336146D01*
X119296543Y-55336159D01*
X119384144Y-55467262D01*
X119384147Y-55467266D01*
X119495641Y-55578760D01*
X119495645Y-55578763D01*
X119626748Y-55666364D01*
X119626761Y-55666371D01*
X119746293Y-55715882D01*
X119772437Y-55726711D01*
X119927087Y-55757473D01*
X119927090Y-55757474D01*
X119927092Y-55757474D01*
X120084778Y-55757474D01*
X120084779Y-55757473D01*
X120239431Y-55726711D01*
X120323048Y-55692075D01*
X120392517Y-55684607D01*
X120454996Y-55715882D01*
X120490648Y-55775971D01*
X120494500Y-55806637D01*
X120494500Y-56370500D01*
X120474815Y-56437539D01*
X120422011Y-56483294D01*
X120370500Y-56494500D01*
X119124000Y-56494500D01*
X119123991Y-56494500D01*
X119123990Y-56494501D01*
X119016549Y-56506052D01*
X119016537Y-56506054D01*
X118965027Y-56517260D01*
X118862502Y-56551383D01*
X118862496Y-56551386D01*
X118741462Y-56629171D01*
X118741451Y-56629179D01*
X118688659Y-56674923D01*
X118594433Y-56783664D01*
X118594430Y-56783668D01*
X118534660Y-56914542D01*
X118533116Y-56918685D01*
X118531196Y-56917969D01*
X118497960Y-56969702D01*
X118434408Y-56998735D01*
X118416744Y-57000000D01*
X118000000Y-57000000D01*
X117987324Y-57012675D01*
X117980315Y-57036548D01*
X117927511Y-57082303D01*
X117858353Y-57092247D01*
X117851809Y-57091126D01*
X117706255Y-57062174D01*
X117706251Y-57062174D01*
X117548567Y-57062174D01*
X117548564Y-57062174D01*
X117393919Y-57092935D01*
X117393907Y-57092938D01*
X117248236Y-57153276D01*
X117248223Y-57153283D01*
X117117120Y-57240884D01*
X117117116Y-57240887D01*
X117005622Y-57352381D01*
X117005619Y-57352385D01*
X116918018Y-57483488D01*
X116918011Y-57483501D01*
X116857673Y-57629172D01*
X116857670Y-57629184D01*
X116826909Y-57783827D01*
X116826909Y-57941520D01*
X116857670Y-58096163D01*
X116857673Y-58096175D01*
X116918011Y-58241846D01*
X116918018Y-58241859D01*
X117005619Y-58372962D01*
X117005622Y-58372966D01*
X117117116Y-58484460D01*
X117117120Y-58484463D01*
X117248223Y-58572064D01*
X117248236Y-58572071D01*
X117368268Y-58621789D01*
X117393912Y-58632411D01*
X117548562Y-58663173D01*
X117548565Y-58663174D01*
X117548567Y-58663174D01*
X117706253Y-58663174D01*
X117851808Y-58634221D01*
X117921400Y-58640448D01*
X117976577Y-58683311D01*
X117999822Y-58749201D01*
X118000000Y-58755838D01*
X118000000Y-59000000D01*
X118416204Y-59000000D01*
X118483243Y-59019685D01*
X118528998Y-59072489D01*
X118533858Y-59084841D01*
X118551383Y-59137497D01*
X118551386Y-59137503D01*
X118629171Y-59258537D01*
X118629179Y-59258548D01*
X118674923Y-59311340D01*
X118674926Y-59311343D01*
X118674930Y-59311347D01*
X118783664Y-59405567D01*
X118783667Y-59405568D01*
X118783668Y-59405569D01*
X118856679Y-59438913D01*
X118914541Y-59465338D01*
X118981580Y-59485023D01*
X118981584Y-59485024D01*
X119124000Y-59505500D01*
X119124003Y-59505500D01*
X121070646Y-59505500D01*
X121071194Y-59505497D01*
X121074339Y-59505486D01*
X121076110Y-59505473D01*
X121079620Y-59505435D01*
X121109708Y-59500669D01*
X121178998Y-59509622D01*
X121232452Y-59554617D01*
X121253093Y-59621368D01*
X121243669Y-59670591D01*
X121230263Y-59702958D01*
X121230261Y-59702965D01*
X121199500Y-59857608D01*
X121199500Y-60015301D01*
X121230261Y-60169944D01*
X121230264Y-60169956D01*
X121290602Y-60315627D01*
X121290609Y-60315640D01*
X121378210Y-60446743D01*
X121378213Y-60446747D01*
X121489707Y-60558241D01*
X121489711Y-60558244D01*
X121620814Y-60645845D01*
X121620827Y-60645852D01*
X121766498Y-60706190D01*
X121766503Y-60706192D01*
X121921153Y-60736954D01*
X121921156Y-60736955D01*
X121921158Y-60736955D01*
X122078844Y-60736955D01*
X122078845Y-60736954D01*
X122233497Y-60706192D01*
X122379179Y-60645849D01*
X122510289Y-60558244D01*
X122621789Y-60446744D01*
X122709394Y-60315634D01*
X122769737Y-60169952D01*
X122800500Y-60015297D01*
X122800500Y-59930020D01*
X122820185Y-59862981D01*
X122872989Y-59817226D01*
X122886183Y-59812089D01*
X122965394Y-59786352D01*
X122965400Y-59786350D01*
X123147791Y-59693417D01*
X123246959Y-59621368D01*
X123313394Y-59573101D01*
X123313396Y-59573098D01*
X123313400Y-59573096D01*
X123432738Y-59453758D01*
X123494061Y-59420273D01*
X123563753Y-59425257D01*
X123571916Y-59428638D01*
X123652275Y-59465338D01*
X123719314Y-59485023D01*
X123719318Y-59485024D01*
X123861734Y-59505500D01*
X123861737Y-59505500D01*
X126699011Y-59505500D01*
X126699017Y-59505500D01*
X126815267Y-59491951D01*
X126870772Y-59478835D01*
X126980796Y-59438913D01*
X127098982Y-59356854D01*
X127150119Y-59309243D01*
X127240397Y-59197214D01*
X127290378Y-59076548D01*
X127334219Y-59022144D01*
X127400513Y-59000079D01*
X127404939Y-59000000D01*
X128000000Y-59000000D01*
X128000000Y-54124000D01*
X128019685Y-54056961D01*
X128072489Y-54011206D01*
X128124000Y-54000000D01*
X129876000Y-54000000D01*
X129943039Y-54019685D01*
G37*
%TD.AperFunction*%
%TD*%
M02*
