%TF.GenerationSoftware,KiCad,Pcbnew,9.0.7*%
%TF.CreationDate,2026-02-21T02:21:44-08:00*%
%TF.ProjectId,Contact Mic Board,436f6e74-6163-4742-904d-696320426f61,rev?*%
%TF.SameCoordinates,Original*%
%TF.FileFunction,Copper,L1,Top*%
%TF.FilePolarity,Positive*%
%FSLAX46Y46*%
G04 Gerber Fmt 4.6, Leading zero omitted, Abs format (unit mm)*
G04 Created by KiCad (PCBNEW 9.0.7) date 2026-02-21 02:21:44*
%MOMM*%
%LPD*%
G01*
G04 APERTURE LIST*
G04 Aperture macros list*
%AMRoundRect*
0 Rectangle with rounded corners*
0 $1 Rounding radius*
0 $2 $3 $4 $5 $6 $7 $8 $9 X,Y pos of 4 corners*
0 Add a 4 corners polygon primitive as box body*
4,1,4,$2,$3,$4,$5,$6,$7,$8,$9,$2,$3,0*
0 Add four circle primitives for the rounded corners*
1,1,$1+$1,$2,$3*
1,1,$1+$1,$4,$5*
1,1,$1+$1,$6,$7*
1,1,$1+$1,$8,$9*
0 Add four rect primitives between the rounded corners*
20,1,$1+$1,$2,$3,$4,$5,0*
20,1,$1+$1,$4,$5,$6,$7,0*
20,1,$1+$1,$6,$7,$8,$9,0*
20,1,$1+$1,$8,$9,$2,$3,0*%
%AMFreePoly0*
4,1,14,0.318306,0.106694,0.381694,0.043306,0.400000,-0.000888,0.400000,-0.062500,0.381694,-0.106694,0.337500,-0.125000,-0.337500,-0.125000,-0.381694,-0.106694,-0.400000,-0.062500,-0.400000,0.062500,-0.381694,0.106694,-0.337500,0.125000,0.274112,0.125000,0.318306,0.106694,0.318306,0.106694,$1*%
%AMFreePoly1*
4,1,14,0.381694,0.106694,0.400000,0.062500,0.400000,0.000888,0.381694,-0.043306,0.318306,-0.106694,0.274112,-0.125000,-0.337500,-0.125000,-0.381694,-0.106694,-0.400000,-0.062500,-0.400000,0.062500,-0.381694,0.106694,-0.337500,0.125000,0.337500,0.125000,0.381694,0.106694,0.381694,0.106694,$1*%
%AMFreePoly2*
4,1,14,0.106694,0.381694,0.125000,0.337500,0.125000,-0.337500,0.106694,-0.381694,0.062500,-0.400000,-0.062500,-0.400000,-0.106694,-0.381694,-0.125000,-0.337500,-0.125000,0.274112,-0.106694,0.318306,-0.043306,0.381694,0.000888,0.400000,0.062500,0.400000,0.106694,0.381694,0.106694,0.381694,$1*%
%AMFreePoly3*
4,1,14,0.043306,0.381694,0.106694,0.318306,0.125000,0.274112,0.125000,-0.337500,0.106694,-0.381694,0.062500,-0.400000,-0.062500,-0.400000,-0.106694,-0.381694,-0.125000,-0.337500,-0.125000,0.337500,-0.106694,0.381694,-0.062500,0.400000,-0.000888,0.400000,0.043306,0.381694,0.043306,0.381694,$1*%
%AMFreePoly4*
4,1,14,0.381694,0.106694,0.400000,0.062500,0.400000,-0.062500,0.381694,-0.106694,0.337500,-0.125000,-0.274112,-0.125000,-0.318306,-0.106694,-0.381694,-0.043306,-0.400000,0.000888,-0.400000,0.062500,-0.381694,0.106694,-0.337500,0.125000,0.337500,0.125000,0.381694,0.106694,0.381694,0.106694,$1*%
%AMFreePoly5*
4,1,14,0.381694,0.106694,0.400000,0.062500,0.400000,-0.062500,0.381694,-0.106694,0.337500,-0.125000,-0.337500,-0.125000,-0.381694,-0.106694,-0.400000,-0.062500,-0.400000,-0.000888,-0.381694,0.043306,-0.318306,0.106694,-0.274112,0.125000,0.337500,0.125000,0.381694,0.106694,0.381694,0.106694,$1*%
%AMFreePoly6*
4,1,14,0.106694,0.381694,0.125000,0.337500,0.125000,-0.274112,0.106694,-0.318306,0.043306,-0.381694,-0.000888,-0.400000,-0.062500,-0.400000,-0.106694,-0.381694,-0.125000,-0.337500,-0.125000,0.337500,-0.106694,0.381694,-0.062500,0.400000,0.062500,0.400000,0.106694,0.381694,0.106694,0.381694,$1*%
%AMFreePoly7*
4,1,14,0.106694,0.381694,0.125000,0.337500,0.125000,-0.337500,0.106694,-0.381694,0.062500,-0.400000,0.000888,-0.400000,-0.043306,-0.381694,-0.106694,-0.318306,-0.125000,-0.274112,-0.125000,0.337500,-0.106694,0.381694,-0.062500,0.400000,0.062500,0.400000,0.106694,0.381694,0.106694,0.381694,$1*%
G04 Aperture macros list end*
%TA.AperFunction,SMDPad,CuDef*%
%ADD10R,1.000000X1.000000*%
%TD*%
%TA.AperFunction,ComponentPad*%
%ADD11C,1.700000*%
%TD*%
%TA.AperFunction,ComponentPad*%
%ADD12R,1.700000X1.700000*%
%TD*%
%TA.AperFunction,SMDPad,CuDef*%
%ADD13RoundRect,0.140000X0.170000X-0.140000X0.170000X0.140000X-0.170000X0.140000X-0.170000X-0.140000X0*%
%TD*%
%TA.AperFunction,SMDPad,CuDef*%
%ADD14RoundRect,0.140000X-0.170000X0.140000X-0.170000X-0.140000X0.170000X-0.140000X0.170000X0.140000X0*%
%TD*%
%TA.AperFunction,SMDPad,CuDef*%
%ADD15RoundRect,0.140000X-0.140000X-0.170000X0.140000X-0.170000X0.140000X0.170000X-0.140000X0.170000X0*%
%TD*%
%TA.AperFunction,ComponentPad*%
%ADD16C,1.600000*%
%TD*%
%TA.AperFunction,SMDPad,CuDef*%
%ADD17RoundRect,0.225000X-0.250000X0.225000X-0.250000X-0.225000X0.250000X-0.225000X0.250000X0.225000X0*%
%TD*%
%TA.AperFunction,SMDPad,CuDef*%
%ADD18R,0.750000X0.300000*%
%TD*%
%TA.AperFunction,SMDPad,CuDef*%
%ADD19R,1.750000X1.450000*%
%TD*%
%TA.AperFunction,SMDPad,CuDef*%
%ADD20RoundRect,0.250000X-1.100000X0.250000X-1.100000X-0.250000X1.100000X-0.250000X1.100000X0.250000X0*%
%TD*%
%TA.AperFunction,SMDPad,CuDef*%
%ADD21RoundRect,0.150000X-0.700000X0.150000X-0.700000X-0.150000X0.700000X-0.150000X0.700000X0.150000X0*%
%TD*%
%TA.AperFunction,SMDPad,CuDef*%
%ADD22FreePoly0,0.000000*%
%TD*%
%TA.AperFunction,SMDPad,CuDef*%
%ADD23RoundRect,0.062500X-0.337500X-0.062500X0.337500X-0.062500X0.337500X0.062500X-0.337500X0.062500X0*%
%TD*%
%TA.AperFunction,SMDPad,CuDef*%
%ADD24FreePoly1,0.000000*%
%TD*%
%TA.AperFunction,SMDPad,CuDef*%
%ADD25FreePoly2,0.000000*%
%TD*%
%TA.AperFunction,SMDPad,CuDef*%
%ADD26RoundRect,0.062500X-0.062500X-0.337500X0.062500X-0.337500X0.062500X0.337500X-0.062500X0.337500X0*%
%TD*%
%TA.AperFunction,SMDPad,CuDef*%
%ADD27FreePoly3,0.000000*%
%TD*%
%TA.AperFunction,SMDPad,CuDef*%
%ADD28FreePoly4,0.000000*%
%TD*%
%TA.AperFunction,SMDPad,CuDef*%
%ADD29FreePoly5,0.000000*%
%TD*%
%TA.AperFunction,SMDPad,CuDef*%
%ADD30FreePoly6,0.000000*%
%TD*%
%TA.AperFunction,SMDPad,CuDef*%
%ADD31FreePoly7,0.000000*%
%TD*%
%TA.AperFunction,HeatsinkPad*%
%ADD32R,2.600000X2.600000*%
%TD*%
%TA.AperFunction,ViaPad*%
%ADD33C,0.600000*%
%TD*%
%TA.AperFunction,Conductor*%
%ADD34C,0.500000*%
%TD*%
%TA.AperFunction,Conductor*%
%ADD35C,0.200000*%
%TD*%
G04 APERTURE END LIST*
D10*
%TO.P,TP3,1,1*%
%TO.N,+3.3VA*%
X124000000Y-63000000D03*
%TD*%
%TO.P,TP1,1,1*%
%TO.N,GND*%
X128000000Y-58000000D03*
%TD*%
%TO.P,TP4,1,1*%
%TO.N,VMID*%
X127000000Y-51000000D03*
%TD*%
%TO.P,TP2,1,1*%
%TO.N,+3.3V*%
X112000000Y-50000000D03*
%TD*%
D11*
%TO.P,MIC2,2,-*%
%TO.N,GND*%
X139466181Y-61501130D03*
D12*
%TO.P,MIC2,1,+*%
%TO.N,Net-(MIC2-+)*%
X139466181Y-58961130D03*
%TD*%
D13*
%TO.P,R7,2*%
%TO.N,Net-(C12-Pad1)*%
X125410615Y-52455539D03*
%TO.P,R7,1*%
%TO.N,Net-(U2A--)*%
X125410615Y-53415539D03*
%TD*%
%TO.P,R3,2*%
%TO.N,VMID*%
X133466181Y-49481130D03*
%TO.P,R3,1*%
%TO.N,Net-(U2A-+)*%
X133466181Y-50441130D03*
%TD*%
D14*
%TO.P,R10,2*%
%TO.N,GND*%
X137000000Y-62441130D03*
%TO.P,R10,1*%
%TO.N,Net-(MIC2-+)*%
X137000000Y-61481130D03*
%TD*%
D15*
%TO.P,C13,2*%
%TO.N,Net-(MIC2-+)*%
X136946181Y-58961130D03*
%TO.P,C13,1*%
%TO.N,Net-(C13-Pad1)*%
X135986181Y-58961130D03*
%TD*%
D13*
%TO.P,C3,1*%
%TO.N,GND*%
X114064641Y-63515004D03*
%TO.P,C3,2*%
%TO.N,+3.3V*%
X114064641Y-62555004D03*
%TD*%
D15*
%TO.P,R11,1*%
%TO.N,Net-(J1-Pin_6)*%
X110992726Y-58076204D03*
%TO.P,R11,2*%
%TO.N,Net-(U1-MCLK)*%
X111952726Y-58076204D03*
%TD*%
D13*
%TO.P,C6,1*%
%TO.N,GND*%
X120543665Y-63526476D03*
%TO.P,C6,2*%
%TO.N,+3.3VA*%
X120543665Y-62566476D03*
%TD*%
D16*
%TO.P,R6,2*%
%TO.N,Net-(U2A--)*%
X122466181Y-58581130D03*
%TO.P,R6,1*%
%TO.N,Net-(C10-Pad2)*%
X122466181Y-50961130D03*
%TD*%
D14*
%TO.P,R9,2*%
%TO.N,GND*%
X137000000Y-55441130D03*
%TO.P,R9,1*%
%TO.N,Net-(MIC1-+)*%
X137000000Y-54481130D03*
%TD*%
D13*
%TO.P,C12,2*%
%TO.N,VMID*%
X125410615Y-50455539D03*
%TO.P,C12,1*%
%TO.N,Net-(C12-Pad1)*%
X125410615Y-51415539D03*
%TD*%
%TO.P,R8,2*%
%TO.N,Net-(C11-Pad1)*%
X128466181Y-52481130D03*
%TO.P,R8,1*%
%TO.N,Net-(U2B--)*%
X128466181Y-53441130D03*
%TD*%
%TO.P,C9,2*%
%TO.N,Net-(C9-Pad2)*%
X118185873Y-50270342D03*
%TO.P,C9,1*%
%TO.N,Net-(U1-RIN1)*%
X118185873Y-51230342D03*
%TD*%
D14*
%TO.P,C16,1*%
%TO.N,Net-(U1-ADCVREF)*%
X117362158Y-58976455D03*
%TO.P,C16,2*%
%TO.N,GND*%
X117362158Y-59936455D03*
%TD*%
D15*
%TO.P,C8,2*%
%TO.N,Net-(MIC1-+)*%
X136946181Y-51961130D03*
%TO.P,C8,1*%
%TO.N,Net-(C8-Pad1)*%
X135986181Y-51961130D03*
%TD*%
%TO.P,R1,2*%
%TO.N,Net-(C8-Pad1)*%
X134946181Y-51961130D03*
%TO.P,R1,1*%
%TO.N,Net-(U2A-+)*%
X133986181Y-51961130D03*
%TD*%
D11*
%TO.P,MIC1,2,-*%
%TO.N,GND*%
X139466181Y-54501130D03*
D12*
%TO.P,MIC1,1,+*%
%TO.N,Net-(MIC1-+)*%
X139466181Y-51961130D03*
%TD*%
D17*
%TO.P,C2,1*%
%TO.N,+3.3V*%
X112579024Y-62235089D03*
%TO.P,C2,2*%
%TO.N,GND*%
X112579024Y-63785089D03*
%TD*%
D18*
%TO.P,U2,1*%
%TO.N,Net-(C10-Pad2)*%
X125453681Y-54573630D03*
%TO.P,U2,2,-*%
%TO.N,Net-(U2A--)*%
X125453681Y-55073630D03*
%TO.P,U2,3,+*%
%TO.N,Net-(U2A-+)*%
X125453681Y-55573630D03*
%TO.P,U2,4,V-*%
%TO.N,GND*%
X125453681Y-56073630D03*
%TO.P,U2,5,+*%
%TO.N,Net-(U2B-+)*%
X128353681Y-56073630D03*
%TO.P,U2,6,-*%
%TO.N,Net-(U2B--)*%
X128353681Y-55573630D03*
%TO.P,U2,7*%
%TO.N,Net-(C9-Pad2)*%
X128353681Y-55073630D03*
%TO.P,U2,8,V+*%
%TO.N,+3.3VA*%
X128353681Y-54573630D03*
D19*
%TO.P,U2,9,V-*%
%TO.N,GND*%
X126903681Y-55323630D03*
%TD*%
D13*
%TO.P,C10,2*%
%TO.N,Net-(C10-Pad2)*%
X116771147Y-50291147D03*
%TO.P,C10,1*%
%TO.N,Net-(U1-LIN1)*%
X116771147Y-51251147D03*
%TD*%
D17*
%TO.P,C7,1*%
%TO.N,+3.3VA*%
X122000000Y-62250671D03*
%TO.P,C7,2*%
%TO.N,GND*%
X122000000Y-63800671D03*
%TD*%
D15*
%TO.P,R13,1*%
%TO.N,Net-(J1-Pin_4)*%
X110980226Y-55611564D03*
%TO.P,R13,2*%
%TO.N,Net-(U1-LRCK)*%
X111940226Y-55611564D03*
%TD*%
%TO.P,R14,1*%
%TO.N,Net-(J1-Pin_5)*%
X110991657Y-56837432D03*
%TO.P,R14,2*%
%TO.N,Net-(U1-ASDOUT)*%
X111951657Y-56837432D03*
%TD*%
D20*
%TO.P,J1,MP*%
%TO.N,N/C*%
X106000000Y-63700000D03*
X106000000Y-50000000D03*
D21*
%TO.P,J1,9,Pin_9*%
%TO.N,+3.3V*%
X109200000Y-61850000D03*
%TO.P,J1,8,Pin_8*%
%TO.N,Net-(J1-Pin_8)*%
X109200000Y-60600000D03*
%TO.P,J1,7,Pin_7*%
%TO.N,Net-(J1-Pin_7)*%
X109200000Y-59350000D03*
%TO.P,J1,6,Pin_6*%
%TO.N,Net-(J1-Pin_6)*%
X109200000Y-58100000D03*
%TO.P,J1,5,Pin_5*%
%TO.N,Net-(J1-Pin_5)*%
X109200000Y-56850000D03*
%TO.P,J1,4,Pin_4*%
%TO.N,Net-(J1-Pin_4)*%
X109200000Y-55600000D03*
%TO.P,J1,3,Pin_3*%
%TO.N,GND*%
X109200000Y-54350000D03*
%TO.P,J1,2,Pin_2*%
%TO.N,Net-(J1-Pin_2)*%
X109200000Y-53100000D03*
%TO.P,J1,1,Pin_1*%
%TO.N,GND*%
X109200000Y-51850000D03*
%TD*%
D14*
%TO.P,C18,1*%
%TO.N,VMID*%
X120362158Y-58976455D03*
%TO.P,C18,2*%
%TO.N,GND*%
X120362158Y-59936455D03*
%TD*%
D13*
%TO.P,C11,2*%
%TO.N,VMID*%
X128466181Y-50481130D03*
%TO.P,C11,1*%
%TO.N,Net-(C11-Pad1)*%
X128466181Y-51441130D03*
%TD*%
D17*
%TO.P,C17,1*%
%TO.N,VMID*%
X118871062Y-58703629D03*
%TO.P,C17,2*%
%TO.N,GND*%
X118871062Y-60253629D03*
%TD*%
D15*
%TO.P,R12,2*%
%TO.N,Net-(U1-SCLK)*%
X111970908Y-53093049D03*
%TO.P,R12,1*%
%TO.N,Net-(J1-Pin_2)*%
X111010908Y-53093049D03*
%TD*%
D13*
%TO.P,C5,1*%
%TO.N,GND*%
X119307963Y-63515004D03*
%TO.P,C5,2*%
%TO.N,+3.3VA*%
X119307963Y-62555004D03*
%TD*%
D16*
%TO.P,R5,2*%
%TO.N,Net-(C9-Pad2)*%
X131466181Y-50870265D03*
%TO.P,R5,1*%
%TO.N,Net-(U2B--)*%
X131466181Y-58490265D03*
%TD*%
D17*
%TO.P,FB1,2*%
%TO.N,+3.3V*%
X115748400Y-63777938D03*
%TO.P,FB1,1*%
%TO.N,+3.3VA*%
X115748400Y-62227938D03*
%TD*%
D13*
%TO.P,R4,2*%
%TO.N,VMID*%
X133491908Y-56415539D03*
%TO.P,R4,1*%
%TO.N,Net-(U2B-+)*%
X133491908Y-57375539D03*
%TD*%
D17*
%TO.P,C4,1*%
%TO.N,+3.3VA*%
X117776627Y-62250671D03*
%TO.P,C4,2*%
%TO.N,GND*%
X117776627Y-63800671D03*
%TD*%
D22*
%TO.P,U1,1,MCLK*%
%TO.N,Net-(U1-MCLK)*%
X115000000Y-53600000D03*
D23*
%TO.P,U1,2,DVDD*%
%TO.N,+3.3V*%
X115000000Y-54050000D03*
%TO.P,U1,3,PVDD*%
X115000000Y-54500000D03*
%TO.P,U1,4,DGND*%
%TO.N,GND*%
X115000000Y-54950000D03*
%TO.P,U1,5,SCLK*%
%TO.N,Net-(U1-SCLK)*%
X115000000Y-55400000D03*
%TO.P,U1,6,DSDIN*%
%TO.N,unconnected-(U1-DSDIN-Pad6)*%
X115000000Y-55850000D03*
D24*
%TO.P,U1,7,LRCK*%
%TO.N,Net-(U1-LRCK)*%
X115000000Y-56300000D03*
D25*
%TO.P,U1,8,ASDOUT*%
%TO.N,Net-(U1-ASDOUT)*%
X115600000Y-56900000D03*
D26*
%TO.P,U1,9,NC*%
%TO.N,unconnected-(U1-NC-Pad9)*%
X116050000Y-56900000D03*
%TO.P,U1,10,VREF*%
%TO.N,Net-(U1-VREF)*%
X116500000Y-56900000D03*
%TO.P,U1,11,ROUT1*%
%TO.N,unconnected-(U1-ROUT1-Pad11)*%
X116950000Y-56900000D03*
%TO.P,U1,12,LOUT1*%
%TO.N,unconnected-(U1-LOUT1-Pad12)*%
X117400000Y-56900000D03*
%TO.P,U1,13,HPGND*%
%TO.N,GND*%
X117850000Y-56900000D03*
D27*
%TO.P,U1,14,ROUT2*%
%TO.N,unconnected-(U1-ROUT2-Pad14)*%
X118300000Y-56900000D03*
D28*
%TO.P,U1,15,LOUT2*%
%TO.N,unconnected-(U1-LOUT2-Pad15)*%
X118900000Y-56300000D03*
D23*
%TO.P,U1,16,HPVDD*%
%TO.N,+3.3VA*%
X118900000Y-55850000D03*
%TO.P,U1,17,AVDD*%
X118900000Y-55400000D03*
%TO.P,U1,18,AGND*%
%TO.N,GND*%
X118900000Y-54950000D03*
%TO.P,U1,19,ADCVREF*%
%TO.N,Net-(U1-ADCVREF)*%
X118900000Y-54500000D03*
%TO.P,U1,20,VMID*%
%TO.N,VMID*%
X118900000Y-54050000D03*
D29*
%TO.P,U1,21,RIN2*%
%TO.N,unconnected-(U1-RIN2-Pad21)*%
X118900000Y-53600000D03*
D30*
%TO.P,U1,22,LIN2*%
%TO.N,unconnected-(U1-LIN2-Pad22)*%
X118300000Y-53000000D03*
D26*
%TO.P,U1,23,RIN1*%
%TO.N,Net-(U1-RIN1)*%
X117850000Y-53000000D03*
%TO.P,U1,24,LIN1*%
%TO.N,Net-(U1-LIN1)*%
X117400000Y-53000000D03*
%TO.P,U1,25,NC*%
%TO.N,unconnected-(U1-NC-Pad25)*%
X116950000Y-53000000D03*
%TO.P,U1,26,CE*%
%TO.N,GND*%
X116500000Y-53000000D03*
%TO.P,U1,27,CDATA*%
%TO.N,Net-(J1-Pin_7)*%
X116050000Y-53000000D03*
D31*
%TO.P,U1,28,CCLK*%
%TO.N,Net-(J1-Pin_8)*%
X115600000Y-53000000D03*
D32*
%TO.P,U1,29,EPAD*%
%TO.N,GND*%
X116950000Y-54950000D03*
%TD*%
D17*
%TO.P,C14,1*%
%TO.N,Net-(U1-VREF)*%
X114000000Y-58680085D03*
%TO.P,C14,2*%
%TO.N,GND*%
X114000000Y-60230085D03*
%TD*%
%TO.P,C15,1*%
%TO.N,Net-(U1-ADCVREF)*%
X115729538Y-58703629D03*
%TO.P,C15,2*%
%TO.N,GND*%
X115729538Y-60253629D03*
%TD*%
D13*
%TO.P,C1,1*%
%TO.N,GND*%
X111064641Y-63515004D03*
%TO.P,C1,2*%
%TO.N,+3.3V*%
X111064641Y-62555004D03*
%TD*%
D15*
%TO.P,R2,2*%
%TO.N,Net-(C13-Pad1)*%
X134946181Y-58961130D03*
%TO.P,R2,1*%
%TO.N,Net-(U2B-+)*%
X133986181Y-58961130D03*
%TD*%
D33*
%TO.N,+3.3VA*%
X120000000Y-62000000D03*
%TO.N,+3.3V*%
X114000841Y-61422570D03*
%TO.N,VMID*%
X133492747Y-55485620D03*
%TO.N,Net-(C9-Pad2)*%
X120000000Y-50289342D03*
%TO.N,GND*%
X122000000Y-59936455D03*
X115582450Y-51000000D03*
%TO.N,VMID*%
X119786631Y-53385721D03*
%TO.N,GND*%
X110554537Y-54350000D03*
%TO.N,+3.3VA*%
X119783963Y-56000000D03*
%TO.N,GND*%
X117627409Y-57862674D03*
%TO.N,+3.3V*%
X113600000Y-54697082D03*
%TO.N,Net-(U1-MCLK)*%
X113799743Y-53600000D03*
%TO.N,Net-(U2A-+)*%
X134000000Y-54000000D03*
%TO.N,Net-(U2A--)*%
X122463106Y-54430037D03*
%TO.N,Net-(U1-MCLK)*%
X113000000Y-57437432D03*
%TO.N,Net-(J1-Pin_7)*%
X111181555Y-59342779D03*
%TO.N,Net-(U2A--)*%
X124195725Y-53433781D03*
%TO.N,Net-(U2A-+)*%
X124578679Y-56000000D03*
%TO.N,Net-(J1-Pin_7)*%
X112000000Y-52000000D03*
%TO.N,Net-(U2B-+)*%
X132423652Y-57610915D03*
X130000000Y-57000000D03*
%TO.N,GND*%
X120005934Y-54956974D03*
%TO.N,VMID*%
X133462543Y-48657095D03*
%TO.N,GND*%
X126901161Y-53256640D03*
%TO.N,VMID*%
X120000000Y-58000000D03*
%TO.N,GND*%
X127000000Y-58000000D03*
%TO.N,VMID*%
X127000000Y-50000000D03*
%TO.N,+3.3V*%
X113000000Y-50000000D03*
%TO.N,GND*%
X123000000Y-64000000D03*
X110000000Y-64000000D03*
%TO.N,Net-(C9-Pad2)*%
X131472213Y-54290235D03*
%TO.N,+3.3VA*%
X129478492Y-54473630D03*
%TO.N,GND*%
X110620516Y-51850000D03*
%TO.N,Net-(J1-Pin_8)*%
X112000000Y-60000000D03*
X113000000Y-53000000D03*
%TO.N,+3.3VA*%
X116999863Y-61003629D03*
X125000000Y-63000000D03*
%TO.N,GND*%
X113000000Y-61000000D03*
%TO.N,+3.3V*%
X110975735Y-61200000D03*
%TD*%
D34*
%TO.N,+3.3VA*%
X120000000Y-62555004D02*
X120000000Y-62000000D01*
X119307963Y-62555004D02*
X120000000Y-62555004D01*
%TO.N,GND*%
X122000000Y-59936455D02*
X120362158Y-59936455D01*
%TO.N,+3.3V*%
X114525466Y-61947195D02*
X114000841Y-61422570D01*
X114525466Y-62555004D02*
X114525466Y-61947195D01*
D35*
%TO.N,Net-(U1-ADCVREF)*%
X117874939Y-58463674D02*
X117362158Y-58976455D01*
X117876352Y-58463674D02*
X117874939Y-58463674D01*
X118228409Y-58111617D02*
X117876352Y-58463674D01*
X118228409Y-58110204D02*
X118228409Y-58111617D01*
X118385984Y-57952629D02*
X118228409Y-58110204D01*
X119047371Y-57952629D02*
X118385984Y-57952629D01*
X120618064Y-55053291D02*
X120615180Y-55056175D01*
X120615180Y-55056175D02*
X120615180Y-56384820D01*
X120615180Y-56384820D02*
X119047371Y-57952629D01*
X120618064Y-54701057D02*
X120618064Y-55053291D01*
X120266007Y-54349000D02*
X120618064Y-54701057D01*
X119768121Y-54349000D02*
X120266007Y-54349000D01*
X118900000Y-54500000D02*
X119617121Y-54500000D01*
X119617121Y-54500000D02*
X119768121Y-54349000D01*
D34*
%TO.N,VMID*%
X133462543Y-49477492D02*
X133466181Y-49481130D01*
X133462543Y-48657095D02*
X133462543Y-49477492D01*
X133491908Y-55486459D02*
X133492747Y-55485620D01*
X133491908Y-56415539D02*
X133491908Y-55486459D01*
X133504709Y-56402738D02*
X133491908Y-56415539D01*
D35*
%TO.N,Net-(U1-MCLK)*%
X113799743Y-53600000D02*
X115000000Y-53600000D01*
%TO.N,Net-(U2B--)*%
X132844097Y-55211579D02*
X131466181Y-56589495D01*
X132844097Y-53837111D02*
X132844097Y-55211579D01*
X129441711Y-53441711D02*
X132441711Y-53441711D01*
X132441711Y-53441711D02*
X132837111Y-53837111D01*
X129441130Y-53441130D02*
X129441711Y-53441711D01*
X132837111Y-53837111D02*
X132844097Y-53837111D01*
X128466181Y-53441130D02*
X129441130Y-53441130D01*
%TO.N,GND*%
X119998960Y-54950000D02*
X118900000Y-54950000D01*
X120005934Y-54956974D02*
X119998960Y-54950000D01*
%TO.N,+3.3VA*%
X119633963Y-55850000D02*
X119783963Y-56000000D01*
X118900000Y-55850000D02*
X119633963Y-55850000D01*
%TO.N,Net-(J1-Pin_8)*%
X111400000Y-60600000D02*
X112000000Y-60000000D01*
X109200000Y-60600000D02*
X111400000Y-60600000D01*
X113000000Y-53000000D02*
X115600000Y-53000000D01*
D34*
%TO.N,GND*%
X137000000Y-55441130D02*
X138526181Y-55441130D01*
X138526181Y-55441130D02*
X139466181Y-54501130D01*
%TO.N,+3.3V*%
X112579024Y-62235089D02*
X113744726Y-62235089D01*
%TO.N,GND*%
X137000000Y-62441130D02*
X138526181Y-62441130D01*
X138526181Y-62441130D02*
X139466181Y-61501130D01*
%TO.N,+3.3V*%
X111064641Y-62555004D02*
X112259109Y-62555004D01*
%TO.N,VMID*%
X125410615Y-50455539D02*
X126455539Y-50455539D01*
%TO.N,+3.3V*%
X114525466Y-62555004D02*
X115748400Y-63777938D01*
%TO.N,GND*%
X114000000Y-60230085D02*
X115705994Y-60230085D01*
X120044984Y-60253629D02*
X120362158Y-59936455D01*
X115729538Y-60253629D02*
X117044984Y-60253629D01*
%TO.N,+3.3V*%
X110359637Y-61850000D02*
X111064641Y-62555004D01*
%TO.N,GND*%
X121725805Y-63526476D02*
X122000000Y-63800671D01*
X111064641Y-63515004D02*
X112308939Y-63515004D01*
X117044984Y-60253629D02*
X117362158Y-59936455D01*
X112579024Y-63785089D02*
X113794556Y-63785089D01*
%TO.N,+3.3V*%
X114064641Y-62555004D02*
X114525466Y-62555004D01*
%TO.N,GND*%
X117776627Y-63800671D02*
X119022296Y-63800671D01*
X119022296Y-63800671D02*
X119307963Y-63515004D01*
%TO.N,+3.3V*%
X113744726Y-62235089D02*
X114064641Y-62555004D01*
%TO.N,GND*%
X119307963Y-63515004D02*
X120532193Y-63515004D01*
X120543665Y-63526476D02*
X121725805Y-63526476D01*
%TO.N,+3.3V*%
X109200000Y-61850000D02*
X110359637Y-61850000D01*
%TO.N,GND*%
X115705994Y-60230085D02*
X115729538Y-60253629D01*
X118871062Y-60253629D02*
X120044984Y-60253629D01*
X112308939Y-63515004D02*
X112579024Y-63785089D01*
X117362158Y-59936455D02*
X118553888Y-59936455D01*
X114064641Y-63531421D02*
X115212158Y-64678938D01*
X110620516Y-51850000D02*
X109200000Y-51850000D01*
X113794556Y-63785089D02*
X114064641Y-63515004D01*
X115212158Y-64678938D02*
X116898360Y-64678938D01*
X116898360Y-64678938D02*
X117776627Y-63800671D01*
%TO.N,VMID*%
X126455539Y-50455539D02*
X127000000Y-51000000D01*
X127000000Y-51000000D02*
X127518870Y-50481130D01*
X127518870Y-50481130D02*
X128466181Y-50481130D01*
D35*
%TO.N,+3.3V*%
X115000000Y-54050000D02*
X115000000Y-54500000D01*
D34*
%TO.N,GND*%
X120532193Y-63515004D02*
X120543665Y-63526476D01*
X118553888Y-59936455D02*
X118871062Y-60253629D01*
D35*
%TO.N,VMID*%
X118900000Y-54050000D02*
X119377672Y-54050000D01*
X119377672Y-54050000D02*
X119786631Y-53641041D01*
D34*
%TO.N,GND*%
X114064641Y-63515004D02*
X114064641Y-63531421D01*
%TO.N,+3.3V*%
X112259109Y-62555004D02*
X112579024Y-62235089D01*
D35*
%TO.N,VMID*%
X119786631Y-53641041D02*
X119786631Y-53385721D01*
D34*
X118871062Y-58703629D02*
X120089332Y-58703629D01*
X120089332Y-58703629D02*
X120362158Y-58976455D01*
%TO.N,+3.3VA*%
X120000000Y-62555004D02*
X120532193Y-62555004D01*
X120532193Y-62555004D02*
X120543665Y-62566476D01*
X120543665Y-62566476D02*
X121684195Y-62566476D01*
X122000000Y-62250671D02*
X123250671Y-62250671D01*
X123250671Y-62250671D02*
X124000000Y-63000000D01*
X124000000Y-63000000D02*
X125000000Y-63000000D01*
%TO.N,+3.3V*%
X110975735Y-61233902D02*
X110975735Y-61200000D01*
%TO.N,+3.3VA*%
X115748400Y-62227938D02*
X115775554Y-62227938D01*
X117753894Y-62227938D02*
X117776627Y-62250671D01*
X117776627Y-62250671D02*
X119003630Y-62250671D01*
X115748400Y-62227938D02*
X117753894Y-62227938D01*
X121684195Y-62566476D02*
X122000000Y-62250671D01*
X119003630Y-62250671D02*
X119307963Y-62555004D01*
X115775554Y-62227938D02*
X116999863Y-61003629D01*
%TO.N,GND*%
X114000000Y-60230085D02*
X113769915Y-60230085D01*
X113769915Y-60230085D02*
X113000000Y-61000000D01*
%TO.N,+3.3V*%
X110359637Y-61850000D02*
X110975735Y-61233902D01*
D35*
%TO.N,GND*%
X115000000Y-54950000D02*
X116950000Y-54950000D01*
X117850000Y-55850000D02*
X117850000Y-56900000D01*
X118900000Y-54950000D02*
X116950000Y-54950000D01*
X116500000Y-54500000D02*
X116500000Y-53000000D01*
X116950000Y-54950000D02*
X117850000Y-55850000D01*
X116950000Y-54950000D02*
X116500000Y-54500000D01*
D34*
X110484996Y-63515004D02*
X110000000Y-64000000D01*
X122000000Y-63800671D02*
X122800671Y-63800671D01*
X122800671Y-63800671D02*
X123000000Y-64000000D01*
%TO.N,+3.3V*%
X112000000Y-50000000D02*
X113000000Y-50000000D01*
%TO.N,GND*%
X111064641Y-63515004D02*
X110484996Y-63515004D01*
D35*
%TO.N,+3.3V*%
X113600000Y-54697082D02*
X114102918Y-54697082D01*
X114102918Y-54697082D02*
X114750000Y-54050000D01*
X114750000Y-54050000D02*
X115000000Y-54050000D01*
%TO.N,GND*%
X116500000Y-51917550D02*
X116500000Y-53000000D01*
X115582450Y-51000000D02*
X116500000Y-51917550D01*
%TO.N,Net-(C9-Pad2)*%
X131472213Y-54290235D02*
X131472213Y-54527787D01*
%TO.N,Net-(U2B-+)*%
X129932249Y-57000000D02*
X129005879Y-56073630D01*
%TO.N,Net-(C9-Pad2)*%
X130926370Y-55073630D02*
X128353681Y-55073630D01*
X131472213Y-54527787D02*
X130926370Y-55073630D01*
%TO.N,Net-(U2B-+)*%
X130000000Y-57000000D02*
X129932249Y-57000000D01*
X129005879Y-56073630D02*
X128353681Y-56073630D01*
X133256532Y-57610915D02*
X133491908Y-57375539D01*
%TO.N,Net-(U2B--)*%
X128365654Y-55561657D02*
X130438343Y-55561657D01*
%TO.N,Net-(U2B-+)*%
X132423652Y-57610915D02*
X133256532Y-57610915D01*
%TO.N,Net-(U2B--)*%
X128353681Y-55573630D02*
X128365654Y-55561657D01*
%TO.N,Net-(C11-Pad1)*%
X128466181Y-51441130D02*
X128466181Y-52481130D01*
%TO.N,VMID*%
X128440590Y-50455539D02*
X128466181Y-50481130D01*
%TO.N,Net-(C12-Pad1)*%
X125410615Y-51415539D02*
X125410615Y-52455539D01*
%TO.N,Net-(U1-ADCVREF)*%
X115729538Y-58703629D02*
X117089332Y-58703629D01*
%TO.N,Net-(MIC2-+)*%
X137000000Y-59014949D02*
X136946181Y-58961130D01*
X137000000Y-61481130D02*
X137000000Y-59014949D01*
%TO.N,Net-(U2A-+)*%
X133466181Y-50441130D02*
X133466181Y-51441130D01*
%TO.N,Net-(MIC1-+)*%
X136946181Y-51961130D02*
X139466181Y-51961130D01*
%TO.N,Net-(U1-ADCVREF)*%
X117089332Y-58703629D02*
X117362158Y-58976455D01*
%TO.N,Net-(U2B-+)*%
X133491908Y-57375539D02*
X133491908Y-58466857D01*
%TO.N,Net-(MIC1-+)*%
X137000000Y-54481130D02*
X137000000Y-52014949D01*
%TO.N,Net-(U2B-+)*%
X133491908Y-58466857D02*
X133986181Y-58961130D01*
%TO.N,Net-(U2A-+)*%
X133466181Y-51441130D02*
X133986181Y-51961130D01*
%TO.N,Net-(MIC2-+)*%
X136946181Y-58961130D02*
X139466181Y-58961130D01*
%TO.N,Net-(C13-Pad1)*%
X134946181Y-58961130D02*
X135986181Y-58961130D01*
%TO.N,Net-(MIC1-+)*%
X137000000Y-52014949D02*
X136946181Y-51961130D01*
%TO.N,Net-(C8-Pad1)*%
X134946181Y-51961130D02*
X135986181Y-51961130D01*
%TO.N,Net-(J1-Pin_2)*%
X109200000Y-53100000D02*
X111003957Y-53100000D01*
%TO.N,Net-(J1-Pin_5)*%
X109200000Y-56850000D02*
X110979089Y-56850000D01*
%TO.N,Net-(J1-Pin_2)*%
X111003957Y-53100000D02*
X111010908Y-53093049D01*
%TO.N,Net-(J1-Pin_6)*%
X109200000Y-58100000D02*
X110968930Y-58100000D01*
%TO.N,Net-(J1-Pin_4)*%
X109200000Y-55600000D02*
X110968662Y-55600000D01*
%TO.N,Net-(J1-Pin_6)*%
X110968930Y-58100000D02*
X110992726Y-58076204D01*
%TO.N,Net-(J1-Pin_4)*%
X110968662Y-55600000D02*
X110980226Y-55611564D01*
%TO.N,Net-(J1-Pin_5)*%
X110979089Y-56850000D02*
X110991657Y-56837432D01*
%TO.N,+3.3VA*%
X129378492Y-54573630D02*
X129478492Y-54473630D01*
%TO.N,Net-(U2B--)*%
X131466181Y-56589495D02*
X130438343Y-55561657D01*
%TO.N,+3.3VA*%
X128353681Y-54573630D02*
X129378492Y-54573630D01*
%TO.N,Net-(U2B--)*%
X131466181Y-58490265D02*
X131466181Y-56589495D01*
%TO.N,Net-(U2A--)*%
X125453681Y-55073630D02*
X123926370Y-55073630D01*
X122466181Y-56533819D02*
X122466181Y-58581130D01*
X123926370Y-55073630D02*
X122466181Y-56533819D01*
%TO.N,+3.3VA*%
X118900000Y-55400000D02*
X118900000Y-55850000D01*
%TO.N,GND*%
X117850000Y-57640083D02*
X117627409Y-57862674D01*
X117850000Y-56900000D02*
X117850000Y-57640083D01*
D34*
%TO.N,VMID*%
X119296371Y-58703629D02*
X120000000Y-58000000D01*
%TO.N,GND*%
X128000000Y-58000000D02*
X127000000Y-58000000D01*
%TO.N,VMID*%
X127000000Y-51000000D02*
X127000000Y-50000000D01*
X118871062Y-58703629D02*
X119296371Y-58703629D01*
%TO.N,GND*%
X126903681Y-53259160D02*
X126903681Y-55323630D01*
X110554537Y-54350000D02*
X109200000Y-54350000D01*
X126901161Y-53256640D02*
X126903681Y-53259160D01*
D35*
X125453681Y-56073630D02*
X126153681Y-56073630D01*
X126153681Y-56073630D02*
X126903681Y-55323630D01*
%TO.N,Net-(J1-Pin_7)*%
X109207221Y-59342779D02*
X111181555Y-59342779D01*
%TO.N,Net-(U1-SCLK)*%
X111970908Y-53093049D02*
X111970908Y-54031979D01*
X113338929Y-55400000D02*
X115000000Y-55400000D01*
%TO.N,Net-(J1-Pin_7)*%
X109200000Y-59350000D02*
X109207221Y-59342779D01*
X116050000Y-52522328D02*
X116050000Y-53000000D01*
X115527672Y-52000000D02*
X116050000Y-52522328D01*
%TO.N,Net-(U1-SCLK)*%
X111970908Y-54031979D02*
X113338929Y-55400000D01*
%TO.N,Net-(J1-Pin_7)*%
X112000000Y-52000000D02*
X115527672Y-52000000D01*
%TO.N,Net-(U1-ASDOUT)*%
X111951657Y-56837432D02*
X115537432Y-56837432D01*
%TO.N,Net-(U2A--)*%
X124195725Y-53433781D02*
X125392373Y-53433781D01*
%TO.N,Net-(U1-LRCK)*%
X111940226Y-55611564D02*
X112628662Y-56300000D01*
%TO.N,Net-(C10-Pad2)*%
X117372952Y-49689342D02*
X121194393Y-49689342D01*
X121194393Y-49689342D02*
X122466181Y-50961130D01*
%TO.N,Net-(U1-RIN1)*%
X118185873Y-51230342D02*
X117850000Y-51566215D01*
%TO.N,Net-(U1-MCLK)*%
X112361228Y-58076204D02*
X113000000Y-57437432D01*
%TO.N,Net-(U1-VREF)*%
X116254798Y-57611000D02*
X116500000Y-57365798D01*
%TO.N,Net-(C10-Pad2)*%
X116771147Y-50291147D02*
X117372952Y-49689342D01*
%TO.N,Net-(U1-VREF)*%
X116500000Y-57365798D02*
X116500000Y-56900000D01*
%TO.N,Net-(U1-LRCK)*%
X112628662Y-56300000D02*
X115000000Y-56300000D01*
%TO.N,Net-(U1-LIN1)*%
X117400000Y-51880000D02*
X117400000Y-53000000D01*
%TO.N,Net-(U2A--)*%
X122463106Y-56530744D02*
X122463106Y-54430037D01*
%TO.N,Net-(U1-LIN1)*%
X116771147Y-51251147D02*
X117400000Y-51880000D01*
%TO.N,Net-(U1-RIN1)*%
X117850000Y-51566215D02*
X117850000Y-53000000D01*
%TO.N,Net-(U1-ASDOUT)*%
X115537432Y-56837432D02*
X115600000Y-56900000D01*
%TO.N,Net-(U1-MCLK)*%
X111952726Y-58076204D02*
X112361228Y-58076204D01*
%TO.N,Net-(U2A--)*%
X122466181Y-56533819D02*
X122463106Y-56530744D01*
%TO.N,Net-(U1-VREF)*%
X114000000Y-58680085D02*
X115069085Y-57611000D01*
%TO.N,Net-(U2A--)*%
X125392373Y-53433781D02*
X125410615Y-53415539D01*
%TO.N,Net-(U1-VREF)*%
X115069085Y-57611000D02*
X116254798Y-57611000D01*
%TO.N,Net-(U2A-+)*%
X125453681Y-55573630D02*
X125005049Y-55573630D01*
X125005049Y-55573630D02*
X124578679Y-56000000D01*
X133986181Y-53986181D02*
X133986181Y-51961130D01*
X134000000Y-54000000D02*
X133986181Y-53986181D01*
%TO.N,Net-(C9-Pad2)*%
X118289342Y-50289342D02*
X118270342Y-50270342D01*
X120000000Y-50289342D02*
X118289342Y-50289342D01*
X118270342Y-50270342D02*
X118185873Y-50270342D01*
%TO.N,Net-(C10-Pad2)*%
X125453681Y-54573630D02*
X123573630Y-54573630D01*
X123573630Y-54573630D02*
X122466181Y-53466181D01*
X122466181Y-53466181D02*
X122466181Y-50961130D01*
%TD*%
M02*
