%TF.GenerationSoftware,KiCad,Pcbnew,9.0.7*%
%TF.CreationDate,2026-02-21T02:21:45-08:00*%
%TF.ProjectId,Contact Mic Board,436f6e74-6163-4742-904d-696320426f61,rev?*%
%TF.SameCoordinates,Original*%
%TF.FileFunction,Paste,Top*%
%TF.FilePolarity,Positive*%
%FSLAX46Y46*%
G04 Gerber Fmt 4.6, Leading zero omitted, Abs format (unit mm)*
G04 Created by KiCad (PCBNEW 9.0.7) date 2026-02-21 02:21:45*
%MOMM*%
%LPD*%
G01*
G04 APERTURE LIST*
G04 Aperture macros list*
%AMRoundRect*
0 Rectangle with rounded corners*
0 $1 Rounding radius*
0 $2 $3 $4 $5 $6 $7 $8 $9 X,Y pos of 4 corners*
0 Add a 4 corners polygon primitive as box body*
4,1,4,$2,$3,$4,$5,$6,$7,$8,$9,$2,$3,0*
0 Add four circle primitives for the rounded corners*
1,1,$1+$1,$2,$3*
1,1,$1+$1,$4,$5*
1,1,$1+$1,$6,$7*
1,1,$1+$1,$8,$9*
0 Add four rect primitives between the rounded corners*
20,1,$1+$1,$2,$3,$4,$5,0*
20,1,$1+$1,$4,$5,$6,$7,0*
20,1,$1+$1,$6,$7,$8,$9,0*
20,1,$1+$1,$8,$9,$2,$3,0*%
%AMFreePoly0*
4,1,14,0.318306,0.106694,0.381694,0.043306,0.400000,-0.000888,0.400000,-0.062500,0.381694,-0.106694,0.337500,-0.125000,-0.337500,-0.125000,-0.381694,-0.106694,-0.400000,-0.062500,-0.400000,0.062500,-0.381694,0.106694,-0.337500,0.125000,0.274112,0.125000,0.318306,0.106694,0.318306,0.106694,$1*%
%AMFreePoly1*
4,1,14,0.381694,0.106694,0.400000,0.062500,0.400000,0.000888,0.381694,-0.043306,0.318306,-0.106694,0.274112,-0.125000,-0.337500,-0.125000,-0.381694,-0.106694,-0.400000,-0.062500,-0.400000,0.062500,-0.381694,0.106694,-0.337500,0.125000,0.337500,0.125000,0.381694,0.106694,0.381694,0.106694,$1*%
%AMFreePoly2*
4,1,14,0.106694,0.381694,0.125000,0.337500,0.125000,-0.337500,0.106694,-0.381694,0.062500,-0.400000,-0.062500,-0.400000,-0.106694,-0.381694,-0.125000,-0.337500,-0.125000,0.274112,-0.106694,0.318306,-0.043306,0.381694,0.000888,0.400000,0.062500,0.400000,0.106694,0.381694,0.106694,0.381694,$1*%
%AMFreePoly3*
4,1,14,0.043306,0.381694,0.106694,0.318306,0.125000,0.274112,0.125000,-0.337500,0.106694,-0.381694,0.062500,-0.400000,-0.062500,-0.400000,-0.106694,-0.381694,-0.125000,-0.337500,-0.125000,0.337500,-0.106694,0.381694,-0.062500,0.400000,-0.000888,0.400000,0.043306,0.381694,0.043306,0.381694,$1*%
%AMFreePoly4*
4,1,14,0.381694,0.106694,0.400000,0.062500,0.400000,-0.062500,0.381694,-0.106694,0.337500,-0.125000,-0.274112,-0.125000,-0.318306,-0.106694,-0.381694,-0.043306,-0.400000,0.000888,-0.400000,0.062500,-0.381694,0.106694,-0.337500,0.125000,0.337500,0.125000,0.381694,0.106694,0.381694,0.106694,$1*%
%AMFreePoly5*
4,1,14,0.381694,0.106694,0.400000,0.062500,0.400000,-0.062500,0.381694,-0.106694,0.337500,-0.125000,-0.337500,-0.125000,-0.381694,-0.106694,-0.400000,-0.062500,-0.400000,-0.000888,-0.381694,0.043306,-0.318306,0.106694,-0.274112,0.125000,0.337500,0.125000,0.381694,0.106694,0.381694,0.106694,$1*%
%AMFreePoly6*
4,1,14,0.106694,0.381694,0.125000,0.337500,0.125000,-0.274112,0.106694,-0.318306,0.043306,-0.381694,-0.000888,-0.400000,-0.062500,-0.400000,-0.106694,-0.381694,-0.125000,-0.337500,-0.125000,0.337500,-0.106694,0.381694,-0.062500,0.400000,0.062500,0.400000,0.106694,0.381694,0.106694,0.381694,$1*%
%AMFreePoly7*
4,1,14,0.106694,0.381694,0.125000,0.337500,0.125000,-0.337500,0.106694,-0.381694,0.062500,-0.400000,0.000888,-0.400000,-0.043306,-0.381694,-0.106694,-0.318306,-0.125000,-0.274112,-0.125000,0.337500,-0.106694,0.381694,-0.062500,0.400000,0.062500,0.400000,0.106694,0.381694,0.106694,0.381694,$1*%
G04 Aperture macros list end*
%ADD10RoundRect,0.140000X0.170000X-0.140000X0.170000X0.140000X-0.170000X0.140000X-0.170000X-0.140000X0*%
%ADD11RoundRect,0.140000X-0.170000X0.140000X-0.170000X-0.140000X0.170000X-0.140000X0.170000X0.140000X0*%
%ADD12RoundRect,0.140000X-0.140000X-0.170000X0.140000X-0.170000X0.140000X0.170000X-0.140000X0.170000X0*%
%ADD13RoundRect,0.225000X-0.250000X0.225000X-0.250000X-0.225000X0.250000X-0.225000X0.250000X0.225000X0*%
%ADD14R,0.710000X0.580000*%
%ADD15R,0.750000X0.300000*%
%ADD16RoundRect,0.250000X-1.100000X0.250000X-1.100000X-0.250000X1.100000X-0.250000X1.100000X0.250000X0*%
%ADD17RoundRect,0.150000X-0.700000X0.150000X-0.700000X-0.150000X0.700000X-0.150000X0.700000X0.150000X0*%
%ADD18RoundRect,0.250000X-0.275000X-0.275000X0.275000X-0.275000X0.275000X0.275000X-0.275000X0.275000X0*%
%ADD19FreePoly0,0.000000*%
%ADD20RoundRect,0.062500X-0.337500X-0.062500X0.337500X-0.062500X0.337500X0.062500X-0.337500X0.062500X0*%
%ADD21FreePoly1,0.000000*%
%ADD22FreePoly2,0.000000*%
%ADD23RoundRect,0.062500X-0.062500X-0.337500X0.062500X-0.337500X0.062500X0.337500X-0.062500X0.337500X0*%
%ADD24FreePoly3,0.000000*%
%ADD25FreePoly4,0.000000*%
%ADD26FreePoly5,0.000000*%
%ADD27FreePoly6,0.000000*%
%ADD28FreePoly7,0.000000*%
G04 APERTURE END LIST*
D10*
%TO.C,R7*%
X125410615Y-52455539D03*
X125410615Y-53415539D03*
%TD*%
%TO.C,R3*%
X133466181Y-49481130D03*
X133466181Y-50441130D03*
%TD*%
D11*
%TO.C,R10*%
X137000000Y-62441130D03*
X137000000Y-61481130D03*
%TD*%
D12*
%TO.C,C13*%
X136946181Y-58961130D03*
X135986181Y-58961130D03*
%TD*%
D10*
%TO.C,C3*%
X114064641Y-63515004D03*
X114064641Y-62555004D03*
%TD*%
D12*
%TO.C,R11*%
X110992726Y-58076204D03*
X111952726Y-58076204D03*
%TD*%
D10*
%TO.C,C6*%
X120543665Y-63526476D03*
X120543665Y-62566476D03*
%TD*%
D11*
%TO.C,R9*%
X137000000Y-55441130D03*
X137000000Y-54481130D03*
%TD*%
D10*
%TO.C,C12*%
X125410615Y-50455539D03*
X125410615Y-51415539D03*
%TD*%
%TO.C,R8*%
X128466181Y-52481130D03*
X128466181Y-53441130D03*
%TD*%
%TO.C,C9*%
X118185873Y-50270342D03*
X118185873Y-51230342D03*
%TD*%
D11*
%TO.C,C16*%
X117362158Y-58976455D03*
X117362158Y-59936455D03*
%TD*%
D12*
%TO.C,C8*%
X136946181Y-51961130D03*
X135986181Y-51961130D03*
%TD*%
%TO.C,R1*%
X134946181Y-51961130D03*
X133986181Y-51961130D03*
%TD*%
D13*
%TO.C,C2*%
X112579024Y-62235089D03*
X112579024Y-63785089D03*
%TD*%
D14*
%TO.C,U2*%
X126466181Y-54961130D03*
X126466181Y-55686130D03*
X127341181Y-54961130D03*
X127341181Y-55686130D03*
D15*
X125453681Y-54573630D03*
X125453681Y-55073630D03*
X125453681Y-55573630D03*
X125453681Y-56073630D03*
X128353681Y-56073630D03*
X128353681Y-55573630D03*
X128353681Y-55073630D03*
X128353681Y-54573630D03*
%TD*%
D10*
%TO.C,C10*%
X116771147Y-50291147D03*
X116771147Y-51251147D03*
%TD*%
D13*
%TO.C,C7*%
X122000000Y-62250671D03*
X122000000Y-63800671D03*
%TD*%
D12*
%TO.C,R13*%
X110980226Y-55611564D03*
X111940226Y-55611564D03*
%TD*%
%TO.C,R14*%
X110991657Y-56837432D03*
X111951657Y-56837432D03*
%TD*%
D16*
%TO.C,J1*%
X106000000Y-63700000D03*
X106000000Y-50000000D03*
D17*
X109200000Y-61850000D03*
X109200000Y-60600000D03*
X109200000Y-59350000D03*
X109200000Y-58100000D03*
X109200000Y-56850000D03*
X109200000Y-55600000D03*
X109200000Y-54350000D03*
X109200000Y-53100000D03*
X109200000Y-51850000D03*
%TD*%
D11*
%TO.C,C18*%
X120362158Y-58976455D03*
X120362158Y-59936455D03*
%TD*%
D10*
%TO.C,C11*%
X128466181Y-50481130D03*
X128466181Y-51441130D03*
%TD*%
D13*
%TO.C,C17*%
X118871062Y-58703629D03*
X118871062Y-60253629D03*
%TD*%
D12*
%TO.C,R12*%
X111970908Y-53093049D03*
X111010908Y-53093049D03*
%TD*%
D10*
%TO.C,C5*%
X119307963Y-63515004D03*
X119307963Y-62555004D03*
%TD*%
D13*
%TO.C,FB1*%
X115748400Y-63777938D03*
X115748400Y-62227938D03*
%TD*%
D10*
%TO.C,R4*%
X133491908Y-56415539D03*
X133491908Y-57375539D03*
%TD*%
D13*
%TO.C,C4*%
X117776627Y-62250671D03*
X117776627Y-63800671D03*
%TD*%
D18*
%TO.C,U1*%
X116300000Y-54300000D03*
X116300000Y-55600000D03*
X117600000Y-54300000D03*
X117600000Y-55600000D03*
D19*
X115000000Y-53600000D03*
D20*
X115000000Y-54050000D03*
X115000000Y-54500000D03*
X115000000Y-54950000D03*
X115000000Y-55400000D03*
X115000000Y-55850000D03*
D21*
X115000000Y-56300000D03*
D22*
X115600000Y-56900000D03*
D23*
X116050000Y-56900000D03*
X116500000Y-56900000D03*
X116950000Y-56900000D03*
X117400000Y-56900000D03*
X117850000Y-56900000D03*
D24*
X118300000Y-56900000D03*
D25*
X118900000Y-56300000D03*
D20*
X118900000Y-55850000D03*
X118900000Y-55400000D03*
X118900000Y-54950000D03*
X118900000Y-54500000D03*
X118900000Y-54050000D03*
D26*
X118900000Y-53600000D03*
D27*
X118300000Y-53000000D03*
D23*
X117850000Y-53000000D03*
X117400000Y-53000000D03*
X116950000Y-53000000D03*
X116500000Y-53000000D03*
X116050000Y-53000000D03*
D28*
X115600000Y-53000000D03*
%TD*%
D13*
%TO.C,C14*%
X114000000Y-58680085D03*
X114000000Y-60230085D03*
%TD*%
%TO.C,C15*%
X115729538Y-58703629D03*
X115729538Y-60253629D03*
%TD*%
D10*
%TO.C,C1*%
X111064641Y-63515004D03*
X111064641Y-62555004D03*
%TD*%
D12*
%TO.C,R2*%
X134946181Y-58961130D03*
X133986181Y-58961130D03*
%TD*%
M02*
