%TF.GenerationSoftware,KiCad,Pcbnew,9.0.7*%
%TF.CreationDate,2026-02-21T02:21:45-08:00*%
%TF.ProjectId,Contact Mic Board,436f6e74-6163-4742-904d-696320426f61,rev?*%
%TF.SameCoordinates,Original*%
%TF.FileFunction,Legend,Top*%
%TF.FilePolarity,Positive*%
%FSLAX46Y46*%
G04 Gerber Fmt 4.6, Leading zero omitted, Abs format (unit mm)*
G04 Created by KiCad (PCBNEW 9.0.7) date 2026-02-21 02:21:45*
%MOMM*%
%LPD*%
G01*
G04 APERTURE LIST*
%ADD10C,0.100000*%
%ADD11C,0.175000*%
%ADD12C,0.150000*%
%ADD13C,0.120000*%
G04 APERTURE END LIST*
D10*
X115346046Y-61528552D02*
X115012713Y-61528552D01*
X115012713Y-62052362D02*
X115012713Y-61052362D01*
X115012713Y-61052362D02*
X115488903Y-61052362D01*
D11*
X123156295Y-61301186D02*
X123113438Y-61344044D01*
X123113438Y-61344044D02*
X122984866Y-61386901D01*
X122984866Y-61386901D02*
X122899152Y-61386901D01*
X122899152Y-61386901D02*
X122770581Y-61344044D01*
X122770581Y-61344044D02*
X122684866Y-61258329D01*
X122684866Y-61258329D02*
X122642009Y-61172615D01*
X122642009Y-61172615D02*
X122599152Y-61001186D01*
X122599152Y-61001186D02*
X122599152Y-60872615D01*
X122599152Y-60872615D02*
X122642009Y-60701186D01*
X122642009Y-60701186D02*
X122684866Y-60615472D01*
X122684866Y-60615472D02*
X122770581Y-60529758D01*
X122770581Y-60529758D02*
X122899152Y-60486901D01*
X122899152Y-60486901D02*
X122984866Y-60486901D01*
X122984866Y-60486901D02*
X123113438Y-60529758D01*
X123113438Y-60529758D02*
X123156295Y-60572615D01*
X123670581Y-61386901D02*
X123584866Y-61344044D01*
X123584866Y-61344044D02*
X123542009Y-61301186D01*
X123542009Y-61301186D02*
X123499152Y-61215472D01*
X123499152Y-61215472D02*
X123499152Y-60958329D01*
X123499152Y-60958329D02*
X123542009Y-60872615D01*
X123542009Y-60872615D02*
X123584866Y-60829758D01*
X123584866Y-60829758D02*
X123670581Y-60786901D01*
X123670581Y-60786901D02*
X123799152Y-60786901D01*
X123799152Y-60786901D02*
X123884866Y-60829758D01*
X123884866Y-60829758D02*
X123927724Y-60872615D01*
X123927724Y-60872615D02*
X123970581Y-60958329D01*
X123970581Y-60958329D02*
X123970581Y-61215472D01*
X123970581Y-61215472D02*
X123927724Y-61301186D01*
X123927724Y-61301186D02*
X123884866Y-61344044D01*
X123884866Y-61344044D02*
X123799152Y-61386901D01*
X123799152Y-61386901D02*
X123670581Y-61386901D01*
X124356295Y-60786901D02*
X124356295Y-61386901D01*
X124356295Y-60872615D02*
X124399152Y-60829758D01*
X124399152Y-60829758D02*
X124484867Y-60786901D01*
X124484867Y-60786901D02*
X124613438Y-60786901D01*
X124613438Y-60786901D02*
X124699152Y-60829758D01*
X124699152Y-60829758D02*
X124742010Y-60915472D01*
X124742010Y-60915472D02*
X124742010Y-61386901D01*
X125042010Y-60786901D02*
X125384867Y-60786901D01*
X125170581Y-60486901D02*
X125170581Y-61258329D01*
X125170581Y-61258329D02*
X125213438Y-61344044D01*
X125213438Y-61344044D02*
X125299153Y-61386901D01*
X125299153Y-61386901D02*
X125384867Y-61386901D01*
X126070582Y-61386901D02*
X126070582Y-60915472D01*
X126070582Y-60915472D02*
X126027724Y-60829758D01*
X126027724Y-60829758D02*
X125942010Y-60786901D01*
X125942010Y-60786901D02*
X125770582Y-60786901D01*
X125770582Y-60786901D02*
X125684867Y-60829758D01*
X126070582Y-61344044D02*
X125984867Y-61386901D01*
X125984867Y-61386901D02*
X125770582Y-61386901D01*
X125770582Y-61386901D02*
X125684867Y-61344044D01*
X125684867Y-61344044D02*
X125642010Y-61258329D01*
X125642010Y-61258329D02*
X125642010Y-61172615D01*
X125642010Y-61172615D02*
X125684867Y-61086901D01*
X125684867Y-61086901D02*
X125770582Y-61044044D01*
X125770582Y-61044044D02*
X125984867Y-61044044D01*
X125984867Y-61044044D02*
X126070582Y-61001186D01*
X126884868Y-61344044D02*
X126799153Y-61386901D01*
X126799153Y-61386901D02*
X126627725Y-61386901D01*
X126627725Y-61386901D02*
X126542010Y-61344044D01*
X126542010Y-61344044D02*
X126499153Y-61301186D01*
X126499153Y-61301186D02*
X126456296Y-61215472D01*
X126456296Y-61215472D02*
X126456296Y-60958329D01*
X126456296Y-60958329D02*
X126499153Y-60872615D01*
X126499153Y-60872615D02*
X126542010Y-60829758D01*
X126542010Y-60829758D02*
X126627725Y-60786901D01*
X126627725Y-60786901D02*
X126799153Y-60786901D01*
X126799153Y-60786901D02*
X126884868Y-60829758D01*
X127142011Y-60786901D02*
X127484868Y-60786901D01*
X127270582Y-60486901D02*
X127270582Y-61258329D01*
X127270582Y-61258329D02*
X127313439Y-61344044D01*
X127313439Y-61344044D02*
X127399154Y-61386901D01*
X127399154Y-61386901D02*
X127484868Y-61386901D01*
X128470582Y-61386901D02*
X128470582Y-60486901D01*
X128470582Y-60486901D02*
X128770582Y-61129758D01*
X128770582Y-61129758D02*
X129070582Y-60486901D01*
X129070582Y-60486901D02*
X129070582Y-61386901D01*
X129499153Y-61386901D02*
X129499153Y-60786901D01*
X129499153Y-60486901D02*
X129456296Y-60529758D01*
X129456296Y-60529758D02*
X129499153Y-60572615D01*
X129499153Y-60572615D02*
X129542010Y-60529758D01*
X129542010Y-60529758D02*
X129499153Y-60486901D01*
X129499153Y-60486901D02*
X129499153Y-60572615D01*
X130313439Y-61344044D02*
X130227724Y-61386901D01*
X130227724Y-61386901D02*
X130056296Y-61386901D01*
X130056296Y-61386901D02*
X129970581Y-61344044D01*
X129970581Y-61344044D02*
X129927724Y-61301186D01*
X129927724Y-61301186D02*
X129884867Y-61215472D01*
X129884867Y-61215472D02*
X129884867Y-60958329D01*
X129884867Y-60958329D02*
X129927724Y-60872615D01*
X129927724Y-60872615D02*
X129970581Y-60829758D01*
X129970581Y-60829758D02*
X130056296Y-60786901D01*
X130056296Y-60786901D02*
X130227724Y-60786901D01*
X130227724Y-60786901D02*
X130313439Y-60829758D01*
X131384867Y-61386901D02*
X131384867Y-60486901D01*
X131384867Y-60486901D02*
X131684867Y-61129758D01*
X131684867Y-61129758D02*
X131984867Y-60486901D01*
X131984867Y-60486901D02*
X131984867Y-61386901D01*
X132542010Y-61386901D02*
X132456295Y-61344044D01*
X132456295Y-61344044D02*
X132413438Y-61301186D01*
X132413438Y-61301186D02*
X132370581Y-61215472D01*
X132370581Y-61215472D02*
X132370581Y-60958329D01*
X132370581Y-60958329D02*
X132413438Y-60872615D01*
X132413438Y-60872615D02*
X132456295Y-60829758D01*
X132456295Y-60829758D02*
X132542010Y-60786901D01*
X132542010Y-60786901D02*
X132670581Y-60786901D01*
X132670581Y-60786901D02*
X132756295Y-60829758D01*
X132756295Y-60829758D02*
X132799153Y-60872615D01*
X132799153Y-60872615D02*
X132842010Y-60958329D01*
X132842010Y-60958329D02*
X132842010Y-61215472D01*
X132842010Y-61215472D02*
X132799153Y-61301186D01*
X132799153Y-61301186D02*
X132756295Y-61344044D01*
X132756295Y-61344044D02*
X132670581Y-61386901D01*
X132670581Y-61386901D02*
X132542010Y-61386901D01*
X133613439Y-61386901D02*
X133613439Y-60486901D01*
X133613439Y-61344044D02*
X133527724Y-61386901D01*
X133527724Y-61386901D02*
X133356296Y-61386901D01*
X133356296Y-61386901D02*
X133270581Y-61344044D01*
X133270581Y-61344044D02*
X133227724Y-61301186D01*
X133227724Y-61301186D02*
X133184867Y-61215472D01*
X133184867Y-61215472D02*
X133184867Y-60958329D01*
X133184867Y-60958329D02*
X133227724Y-60872615D01*
X133227724Y-60872615D02*
X133270581Y-60829758D01*
X133270581Y-60829758D02*
X133356296Y-60786901D01*
X133356296Y-60786901D02*
X133527724Y-60786901D01*
X133527724Y-60786901D02*
X133613439Y-60829758D01*
X134427725Y-60786901D02*
X134427725Y-61386901D01*
X134042010Y-60786901D02*
X134042010Y-61258329D01*
X134042010Y-61258329D02*
X134084867Y-61344044D01*
X134084867Y-61344044D02*
X134170582Y-61386901D01*
X134170582Y-61386901D02*
X134299153Y-61386901D01*
X134299153Y-61386901D02*
X134384867Y-61344044D01*
X134384867Y-61344044D02*
X134427725Y-61301186D01*
X134984868Y-61386901D02*
X134899153Y-61344044D01*
X134899153Y-61344044D02*
X134856296Y-61258329D01*
X134856296Y-61258329D02*
X134856296Y-60486901D01*
X135670582Y-61344044D02*
X135584868Y-61386901D01*
X135584868Y-61386901D02*
X135413440Y-61386901D01*
X135413440Y-61386901D02*
X135327725Y-61344044D01*
X135327725Y-61344044D02*
X135284868Y-61258329D01*
X135284868Y-61258329D02*
X135284868Y-60915472D01*
X135284868Y-60915472D02*
X135327725Y-60829758D01*
X135327725Y-60829758D02*
X135413440Y-60786901D01*
X135413440Y-60786901D02*
X135584868Y-60786901D01*
X135584868Y-60786901D02*
X135670582Y-60829758D01*
X135670582Y-60829758D02*
X135713440Y-60915472D01*
X135713440Y-60915472D02*
X135713440Y-61001186D01*
X135713440Y-61001186D02*
X135284868Y-61086901D01*
X125642011Y-61935851D02*
X125727725Y-61935851D01*
X125727725Y-61935851D02*
X125813439Y-61978708D01*
X125813439Y-61978708D02*
X125856297Y-62021565D01*
X125856297Y-62021565D02*
X125899154Y-62107279D01*
X125899154Y-62107279D02*
X125942011Y-62278708D01*
X125942011Y-62278708D02*
X125942011Y-62492994D01*
X125942011Y-62492994D02*
X125899154Y-62664422D01*
X125899154Y-62664422D02*
X125856297Y-62750136D01*
X125856297Y-62750136D02*
X125813439Y-62792994D01*
X125813439Y-62792994D02*
X125727725Y-62835851D01*
X125727725Y-62835851D02*
X125642011Y-62835851D01*
X125642011Y-62835851D02*
X125556297Y-62792994D01*
X125556297Y-62792994D02*
X125513439Y-62750136D01*
X125513439Y-62750136D02*
X125470582Y-62664422D01*
X125470582Y-62664422D02*
X125427725Y-62492994D01*
X125427725Y-62492994D02*
X125427725Y-62278708D01*
X125427725Y-62278708D02*
X125470582Y-62107279D01*
X125470582Y-62107279D02*
X125513439Y-62021565D01*
X125513439Y-62021565D02*
X125556297Y-61978708D01*
X125556297Y-61978708D02*
X125642011Y-61935851D01*
X126284868Y-62021565D02*
X126327725Y-61978708D01*
X126327725Y-61978708D02*
X126413440Y-61935851D01*
X126413440Y-61935851D02*
X126627725Y-61935851D01*
X126627725Y-61935851D02*
X126713440Y-61978708D01*
X126713440Y-61978708D02*
X126756297Y-62021565D01*
X126756297Y-62021565D02*
X126799154Y-62107279D01*
X126799154Y-62107279D02*
X126799154Y-62192994D01*
X126799154Y-62192994D02*
X126756297Y-62321565D01*
X126756297Y-62321565D02*
X126242011Y-62835851D01*
X126242011Y-62835851D02*
X126799154Y-62835851D01*
X127827725Y-61892994D02*
X127056297Y-63050136D01*
X128084868Y-62021565D02*
X128127725Y-61978708D01*
X128127725Y-61978708D02*
X128213440Y-61935851D01*
X128213440Y-61935851D02*
X128427725Y-61935851D01*
X128427725Y-61935851D02*
X128513440Y-61978708D01*
X128513440Y-61978708D02*
X128556297Y-62021565D01*
X128556297Y-62021565D02*
X128599154Y-62107279D01*
X128599154Y-62107279D02*
X128599154Y-62192994D01*
X128599154Y-62192994D02*
X128556297Y-62321565D01*
X128556297Y-62321565D02*
X128042011Y-62835851D01*
X128042011Y-62835851D02*
X128599154Y-62835851D01*
X129370583Y-61935851D02*
X129199154Y-61935851D01*
X129199154Y-61935851D02*
X129113440Y-61978708D01*
X129113440Y-61978708D02*
X129070583Y-62021565D01*
X129070583Y-62021565D02*
X128984868Y-62150136D01*
X128984868Y-62150136D02*
X128942011Y-62321565D01*
X128942011Y-62321565D02*
X128942011Y-62664422D01*
X128942011Y-62664422D02*
X128984868Y-62750136D01*
X128984868Y-62750136D02*
X129027725Y-62792994D01*
X129027725Y-62792994D02*
X129113440Y-62835851D01*
X129113440Y-62835851D02*
X129284868Y-62835851D01*
X129284868Y-62835851D02*
X129370583Y-62792994D01*
X129370583Y-62792994D02*
X129413440Y-62750136D01*
X129413440Y-62750136D02*
X129456297Y-62664422D01*
X129456297Y-62664422D02*
X129456297Y-62450136D01*
X129456297Y-62450136D02*
X129413440Y-62364422D01*
X129413440Y-62364422D02*
X129370583Y-62321565D01*
X129370583Y-62321565D02*
X129284868Y-62278708D01*
X129284868Y-62278708D02*
X129113440Y-62278708D01*
X129113440Y-62278708D02*
X129027725Y-62321565D01*
X129027725Y-62321565D02*
X128984868Y-62364422D01*
X128984868Y-62364422D02*
X128942011Y-62450136D01*
X130527725Y-62364422D02*
X130827725Y-62364422D01*
X130956297Y-62835851D02*
X130527725Y-62835851D01*
X130527725Y-62835851D02*
X130527725Y-61935851D01*
X130527725Y-61935851D02*
X130956297Y-61935851D01*
X131470583Y-62835851D02*
X131384868Y-62792994D01*
X131384868Y-62792994D02*
X131342011Y-62750136D01*
X131342011Y-62750136D02*
X131299154Y-62664422D01*
X131299154Y-62664422D02*
X131299154Y-62407279D01*
X131299154Y-62407279D02*
X131342011Y-62321565D01*
X131342011Y-62321565D02*
X131384868Y-62278708D01*
X131384868Y-62278708D02*
X131470583Y-62235851D01*
X131470583Y-62235851D02*
X131599154Y-62235851D01*
X131599154Y-62235851D02*
X131684868Y-62278708D01*
X131684868Y-62278708D02*
X131727726Y-62321565D01*
X131727726Y-62321565D02*
X131770583Y-62407279D01*
X131770583Y-62407279D02*
X131770583Y-62664422D01*
X131770583Y-62664422D02*
X131727726Y-62750136D01*
X131727726Y-62750136D02*
X131684868Y-62792994D01*
X131684868Y-62792994D02*
X131599154Y-62835851D01*
X131599154Y-62835851D02*
X131470583Y-62835851D01*
X132670583Y-62750136D02*
X132627726Y-62792994D01*
X132627726Y-62792994D02*
X132499154Y-62835851D01*
X132499154Y-62835851D02*
X132413440Y-62835851D01*
X132413440Y-62835851D02*
X132284869Y-62792994D01*
X132284869Y-62792994D02*
X132199154Y-62707279D01*
X132199154Y-62707279D02*
X132156297Y-62621565D01*
X132156297Y-62621565D02*
X132113440Y-62450136D01*
X132113440Y-62450136D02*
X132113440Y-62321565D01*
X132113440Y-62321565D02*
X132156297Y-62150136D01*
X132156297Y-62150136D02*
X132199154Y-62064422D01*
X132199154Y-62064422D02*
X132284869Y-61978708D01*
X132284869Y-61978708D02*
X132413440Y-61935851D01*
X132413440Y-61935851D02*
X132499154Y-61935851D01*
X132499154Y-61935851D02*
X132627726Y-61978708D01*
X132627726Y-61978708D02*
X132670583Y-62021565D01*
X134170583Y-62835851D02*
X133742011Y-62835851D01*
X133742011Y-62835851D02*
X133742011Y-61935851D01*
X134856297Y-62835851D02*
X134856297Y-62364422D01*
X134856297Y-62364422D02*
X134813439Y-62278708D01*
X134813439Y-62278708D02*
X134727725Y-62235851D01*
X134727725Y-62235851D02*
X134556297Y-62235851D01*
X134556297Y-62235851D02*
X134470582Y-62278708D01*
X134856297Y-62792994D02*
X134770582Y-62835851D01*
X134770582Y-62835851D02*
X134556297Y-62835851D01*
X134556297Y-62835851D02*
X134470582Y-62792994D01*
X134470582Y-62792994D02*
X134427725Y-62707279D01*
X134427725Y-62707279D02*
X134427725Y-62621565D01*
X134427725Y-62621565D02*
X134470582Y-62535851D01*
X134470582Y-62535851D02*
X134556297Y-62492994D01*
X134556297Y-62492994D02*
X134770582Y-62492994D01*
X134770582Y-62492994D02*
X134856297Y-62450136D01*
X135284868Y-62835851D02*
X135284868Y-61935851D01*
X135284868Y-62278708D02*
X135370583Y-62235851D01*
X135370583Y-62235851D02*
X135542011Y-62235851D01*
X135542011Y-62235851D02*
X135627725Y-62278708D01*
X135627725Y-62278708D02*
X135670583Y-62321565D01*
X135670583Y-62321565D02*
X135713440Y-62407279D01*
X135713440Y-62407279D02*
X135713440Y-62664422D01*
X135713440Y-62664422D02*
X135670583Y-62750136D01*
X135670583Y-62750136D02*
X135627725Y-62792994D01*
X135627725Y-62792994D02*
X135542011Y-62835851D01*
X135542011Y-62835851D02*
X135370583Y-62835851D01*
X135370583Y-62835851D02*
X135284868Y-62792994D01*
D10*
X115758549Y-51198033D02*
X115758549Y-51769461D01*
X115758549Y-51483747D02*
X114758549Y-51483747D01*
X114758549Y-51483747D02*
X114901406Y-51578985D01*
X114901406Y-51578985D02*
X114996644Y-51674223D01*
X114996644Y-51674223D02*
X115044263Y-51769461D01*
X115091882Y-50340890D02*
X115758549Y-50340890D01*
X115091882Y-50769461D02*
X115615691Y-50769461D01*
X115615691Y-50769461D02*
X115710930Y-50721842D01*
X115710930Y-50721842D02*
X115758549Y-50626604D01*
X115758549Y-50626604D02*
X115758549Y-50483747D01*
X115758549Y-50483747D02*
X115710930Y-50388509D01*
X115710930Y-50388509D02*
X115663310Y-50340890D01*
X115234739Y-49531366D02*
X115234739Y-49864699D01*
X115758549Y-49864699D02*
X114758549Y-49864699D01*
X114758549Y-49864699D02*
X114758549Y-49388509D01*
X110667503Y-53754103D02*
X111286550Y-53754103D01*
X111286550Y-53754103D02*
X110953217Y-54135055D01*
X110953217Y-54135055D02*
X111096074Y-54135055D01*
X111096074Y-54135055D02*
X111191312Y-54182674D01*
X111191312Y-54182674D02*
X111238931Y-54230293D01*
X111238931Y-54230293D02*
X111286550Y-54325531D01*
X111286550Y-54325531D02*
X111286550Y-54563626D01*
X111286550Y-54563626D02*
X111238931Y-54658864D01*
X111238931Y-54658864D02*
X111191312Y-54706484D01*
X111191312Y-54706484D02*
X111096074Y-54754103D01*
X111096074Y-54754103D02*
X110810360Y-54754103D01*
X110810360Y-54754103D02*
X110715122Y-54706484D01*
X110715122Y-54706484D02*
X110667503Y-54658864D01*
X111619884Y-53754103D02*
X112238931Y-53754103D01*
X112238931Y-53754103D02*
X111905598Y-54135055D01*
X111905598Y-54135055D02*
X112048455Y-54135055D01*
X112048455Y-54135055D02*
X112143693Y-54182674D01*
X112143693Y-54182674D02*
X112191312Y-54230293D01*
X112191312Y-54230293D02*
X112238931Y-54325531D01*
X112238931Y-54325531D02*
X112238931Y-54563626D01*
X112238931Y-54563626D02*
X112191312Y-54658864D01*
X112191312Y-54658864D02*
X112143693Y-54706484D01*
X112143693Y-54706484D02*
X112048455Y-54754103D01*
X112048455Y-54754103D02*
X111762741Y-54754103D01*
X111762741Y-54754103D02*
X111667503Y-54706484D01*
X111667503Y-54706484D02*
X111619884Y-54658864D01*
D12*
X134287269Y-57873097D02*
X134287269Y-56873097D01*
X134287269Y-56873097D02*
X134620602Y-57587382D01*
X134620602Y-57587382D02*
X134953935Y-56873097D01*
X134953935Y-56873097D02*
X134953935Y-57873097D01*
X135430126Y-57873097D02*
X135430126Y-56873097D01*
X136477744Y-57777858D02*
X136430125Y-57825478D01*
X136430125Y-57825478D02*
X136287268Y-57873097D01*
X136287268Y-57873097D02*
X136192030Y-57873097D01*
X136192030Y-57873097D02*
X136049173Y-57825478D01*
X136049173Y-57825478D02*
X135953935Y-57730239D01*
X135953935Y-57730239D02*
X135906316Y-57635001D01*
X135906316Y-57635001D02*
X135858697Y-57444525D01*
X135858697Y-57444525D02*
X135858697Y-57301668D01*
X135858697Y-57301668D02*
X135906316Y-57111192D01*
X135906316Y-57111192D02*
X135953935Y-57015954D01*
X135953935Y-57015954D02*
X136049173Y-56920716D01*
X136049173Y-56920716D02*
X136192030Y-56873097D01*
X136192030Y-56873097D02*
X136287268Y-56873097D01*
X136287268Y-56873097D02*
X136430125Y-56920716D01*
X136430125Y-56920716D02*
X136477744Y-56968335D01*
X136858697Y-56968335D02*
X136906316Y-56920716D01*
X136906316Y-56920716D02*
X137001554Y-56873097D01*
X137001554Y-56873097D02*
X137239649Y-56873097D01*
X137239649Y-56873097D02*
X137334887Y-56920716D01*
X137334887Y-56920716D02*
X137382506Y-56968335D01*
X137382506Y-56968335D02*
X137430125Y-57063573D01*
X137430125Y-57063573D02*
X137430125Y-57158811D01*
X137430125Y-57158811D02*
X137382506Y-57301668D01*
X137382506Y-57301668D02*
X136811078Y-57873097D01*
X136811078Y-57873097D02*
X137430125Y-57873097D01*
X134443305Y-50976308D02*
X134443305Y-49976308D01*
X134443305Y-49976308D02*
X134776638Y-50690593D01*
X134776638Y-50690593D02*
X135109971Y-49976308D01*
X135109971Y-49976308D02*
X135109971Y-50976308D01*
X135586162Y-50976308D02*
X135586162Y-49976308D01*
X136633780Y-50881069D02*
X136586161Y-50928689D01*
X136586161Y-50928689D02*
X136443304Y-50976308D01*
X136443304Y-50976308D02*
X136348066Y-50976308D01*
X136348066Y-50976308D02*
X136205209Y-50928689D01*
X136205209Y-50928689D02*
X136109971Y-50833450D01*
X136109971Y-50833450D02*
X136062352Y-50738212D01*
X136062352Y-50738212D02*
X136014733Y-50547736D01*
X136014733Y-50547736D02*
X136014733Y-50404879D01*
X136014733Y-50404879D02*
X136062352Y-50214403D01*
X136062352Y-50214403D02*
X136109971Y-50119165D01*
X136109971Y-50119165D02*
X136205209Y-50023927D01*
X136205209Y-50023927D02*
X136348066Y-49976308D01*
X136348066Y-49976308D02*
X136443304Y-49976308D01*
X136443304Y-49976308D02*
X136586161Y-50023927D01*
X136586161Y-50023927D02*
X136633780Y-50071546D01*
X137586161Y-50976308D02*
X137014733Y-50976308D01*
X137300447Y-50976308D02*
X137300447Y-49976308D01*
X137300447Y-49976308D02*
X137205209Y-50119165D01*
X137205209Y-50119165D02*
X137109971Y-50214403D01*
X137109971Y-50214403D02*
X137014733Y-50262022D01*
X109454819Y-50333333D02*
X110169104Y-50333333D01*
X110169104Y-50333333D02*
X110311961Y-50380952D01*
X110311961Y-50380952D02*
X110407200Y-50476190D01*
X110407200Y-50476190D02*
X110454819Y-50619047D01*
X110454819Y-50619047D02*
X110454819Y-50714285D01*
X110454819Y-49333333D02*
X110454819Y-49904761D01*
X110454819Y-49619047D02*
X109454819Y-49619047D01*
X109454819Y-49619047D02*
X109597676Y-49714285D01*
X109597676Y-49714285D02*
X109692914Y-49809523D01*
X109692914Y-49809523D02*
X109740533Y-49904761D01*
D13*
%TO.C,TP3*%
X124700000Y-63700000D02*
X123300000Y-63700000D01*
X124700000Y-62300000D02*
X124700000Y-63700000D01*
X123300000Y-63700000D02*
X123300000Y-62300000D01*
X123300000Y-62300000D02*
X124700000Y-62300000D01*
%TO.C,TP1*%
X128700000Y-58700000D02*
X127300000Y-58700000D01*
X128700000Y-57300000D02*
X128700000Y-58700000D01*
X127300000Y-58700000D02*
X127300000Y-57300000D01*
X127300000Y-57300000D02*
X128700000Y-57300000D01*
%TO.C,TP4*%
X127700000Y-51700000D02*
X126300000Y-51700000D01*
X127700000Y-50300000D02*
X127700000Y-51700000D01*
X126300000Y-51700000D02*
X126300000Y-50300000D01*
X126300000Y-50300000D02*
X127700000Y-50300000D01*
%TO.C,TP2*%
X112700000Y-50700000D02*
X111300000Y-50700000D01*
X112700000Y-49300000D02*
X112700000Y-50700000D01*
X111300000Y-50700000D02*
X111300000Y-49300000D01*
X111300000Y-49300000D02*
X112700000Y-49300000D01*
%TO.C,MIC2*%
X140846181Y-60231130D02*
X140846181Y-62881130D01*
X138086181Y-62881130D02*
X140846181Y-62881130D01*
X138086181Y-60231130D02*
X140846181Y-60231130D01*
X138086181Y-60231130D02*
X138086181Y-62881130D01*
X138086181Y-58961130D02*
X138086181Y-57581130D01*
X138086181Y-57581130D02*
X139466181Y-57581130D01*
%TO.C,R7*%
X125770615Y-53043375D02*
X125770615Y-52827703D01*
X125050615Y-53043375D02*
X125050615Y-52827703D01*
%TO.C,R3*%
X133826181Y-50068966D02*
X133826181Y-49853294D01*
X133106181Y-50068966D02*
X133106181Y-49853294D01*
%TO.C,R10*%
X137360000Y-61853294D02*
X137360000Y-62068966D01*
X136640000Y-61853294D02*
X136640000Y-62068966D01*
%TO.C,C13*%
X136358345Y-59321130D02*
X136574017Y-59321130D01*
X136358345Y-58601130D02*
X136574017Y-58601130D01*
%TO.C,C3*%
X113704641Y-63142840D02*
X113704641Y-62927168D01*
X114424641Y-63142840D02*
X114424641Y-62927168D01*
%TO.C,R11*%
X111364890Y-57716204D02*
X111580562Y-57716204D01*
X111364890Y-58436204D02*
X111580562Y-58436204D01*
%TO.C,C6*%
X120183665Y-63154312D02*
X120183665Y-62938640D01*
X120903665Y-63154312D02*
X120903665Y-62938640D01*
%TO.C,R6*%
X123836181Y-58041130D02*
X123506181Y-58041130D01*
X123836181Y-51501130D02*
X123836181Y-58041130D01*
X123506181Y-51501130D02*
X123836181Y-51501130D01*
X121426181Y-51501130D02*
X121096181Y-51501130D01*
X121096181Y-58041130D02*
X121426181Y-58041130D01*
X121096181Y-51501130D02*
X121096181Y-58041130D01*
%TO.C,R9*%
X137360000Y-54853294D02*
X137360000Y-55068966D01*
X136640000Y-54853294D02*
X136640000Y-55068966D01*
%TO.C,C12*%
X125770615Y-51043375D02*
X125770615Y-50827703D01*
X125050615Y-51043375D02*
X125050615Y-50827703D01*
%TO.C,R8*%
X128826181Y-53068966D02*
X128826181Y-52853294D01*
X128106181Y-53068966D02*
X128106181Y-52853294D01*
%TO.C,C9*%
X118545873Y-50858178D02*
X118545873Y-50642506D01*
X117825873Y-50858178D02*
X117825873Y-50642506D01*
%TO.C,C16*%
X117002158Y-59348619D02*
X117002158Y-59564291D01*
X117722158Y-59348619D02*
X117722158Y-59564291D01*
%TO.C,C8*%
X136358345Y-52321130D02*
X136574017Y-52321130D01*
X136358345Y-51601130D02*
X136574017Y-51601130D01*
%TO.C,R1*%
X134358345Y-52321130D02*
X134574017Y-52321130D01*
X134358345Y-51601130D02*
X134574017Y-51601130D01*
%TO.C,MIC1*%
X140846181Y-53231130D02*
X140846181Y-55881130D01*
X138086181Y-55881130D02*
X140846181Y-55881130D01*
X138086181Y-53231130D02*
X140846181Y-53231130D01*
X138086181Y-53231130D02*
X138086181Y-55881130D01*
X138086181Y-51961130D02*
X138086181Y-50581130D01*
X138086181Y-50581130D02*
X139466181Y-50581130D01*
%TO.C,C2*%
X112069024Y-62869509D02*
X112069024Y-63150669D01*
X113089024Y-62869509D02*
X113089024Y-63150669D01*
%TO.C,U2*%
X125403681Y-54213630D02*
X128403681Y-54213630D01*
X125403681Y-56433630D02*
X128403681Y-56433630D01*
X124893681Y-54233630D02*
X124613681Y-54233630D01*
X124893681Y-53953630D01*
X124893681Y-54233630D01*
G36*
X124893681Y-54233630D02*
G01*
X124613681Y-54233630D01*
X124893681Y-53953630D01*
X124893681Y-54233630D01*
G37*
%TO.C,C10*%
X117131147Y-50878983D02*
X117131147Y-50663311D01*
X116411147Y-50878983D02*
X116411147Y-50663311D01*
%TO.C,C7*%
X121490000Y-62885091D02*
X121490000Y-63166251D01*
X122510000Y-62885091D02*
X122510000Y-63166251D01*
%TO.C,R13*%
X111352390Y-55251564D02*
X111568062Y-55251564D01*
X111352390Y-55971564D02*
X111568062Y-55971564D01*
%TO.C,R14*%
X111363821Y-56477432D02*
X111579493Y-56477432D01*
X111363821Y-57197432D02*
X111579493Y-57197432D01*
%TO.C,J1*%
X109060000Y-64210000D02*
X109060000Y-62410000D01*
X109060000Y-51290000D02*
X110050000Y-51290000D01*
X109060000Y-49490000D02*
X109060000Y-51290000D01*
X107610000Y-64210000D02*
X109060000Y-64210000D01*
X107610000Y-49490000D02*
X109060000Y-49490000D01*
X104790000Y-50760000D02*
X104790000Y-62940000D01*
%TO.C,C18*%
X120002158Y-59348619D02*
X120002158Y-59564291D01*
X120722158Y-59348619D02*
X120722158Y-59564291D01*
%TO.C,C11*%
X128826181Y-51068966D02*
X128826181Y-50853294D01*
X128106181Y-51068966D02*
X128106181Y-50853294D01*
%TO.C,C17*%
X118361062Y-59338049D02*
X118361062Y-59619209D01*
X119381062Y-59338049D02*
X119381062Y-59619209D01*
%TO.C,R12*%
X111383072Y-53453049D02*
X111598744Y-53453049D01*
X111383072Y-52733049D02*
X111598744Y-52733049D01*
%TO.C,C5*%
X118947963Y-63142840D02*
X118947963Y-62927168D01*
X119667963Y-63142840D02*
X119667963Y-62927168D01*
%TO.C,R5*%
X132836181Y-57950265D02*
X132836181Y-51410265D01*
X132836181Y-51410265D02*
X132506181Y-51410265D01*
X132506181Y-57950265D02*
X132836181Y-57950265D01*
X130426181Y-57950265D02*
X130096181Y-57950265D01*
X130096181Y-57950265D02*
X130096181Y-51410265D01*
X130096181Y-51410265D02*
X130426181Y-51410265D01*
%TO.C,FB1*%
X116258400Y-62862358D02*
X116258400Y-63143518D01*
X115238400Y-62862358D02*
X115238400Y-63143518D01*
%TO.C,R4*%
X133851908Y-57003375D02*
X133851908Y-56787703D01*
X133131908Y-57003375D02*
X133131908Y-56787703D01*
%TO.C,C4*%
X117266627Y-62885091D02*
X117266627Y-63166251D01*
X118286627Y-62885091D02*
X118286627Y-63166251D01*
%TO.C,U1*%
X114840000Y-52840000D02*
X115215000Y-52840000D01*
X114840000Y-53215000D02*
X114840000Y-52840000D01*
X114840000Y-57060000D02*
X114840000Y-56685000D01*
X115215000Y-57060000D02*
X114840000Y-57060000D01*
X118685000Y-52840000D02*
X119060000Y-52840000D01*
X119060000Y-52840000D02*
X119060000Y-53215000D01*
X119060000Y-56685000D02*
X119060000Y-57060000D01*
X119060000Y-57060000D02*
X118685000Y-57060000D01*
X114340000Y-53600000D02*
X114010000Y-53840000D01*
X114010000Y-53360000D01*
X114340000Y-53600000D01*
G36*
X114340000Y-53600000D02*
G01*
X114010000Y-53840000D01*
X114010000Y-53360000D01*
X114340000Y-53600000D01*
G37*
%TO.C,C14*%
X113490000Y-59314505D02*
X113490000Y-59595665D01*
X114510000Y-59314505D02*
X114510000Y-59595665D01*
%TO.C,C15*%
X115219538Y-59338049D02*
X115219538Y-59619209D01*
X116239538Y-59338049D02*
X116239538Y-59619209D01*
%TO.C,C1*%
X110704641Y-63142840D02*
X110704641Y-62927168D01*
X111424641Y-63142840D02*
X111424641Y-62927168D01*
%TO.C,R2*%
X134358345Y-59321130D02*
X134574017Y-59321130D01*
X134358345Y-58601130D02*
X134574017Y-58601130D01*
%TD*%
M02*
